<?xml version="1.0" encoding="UTF-8"?>
<svg id="outlines" xmlns="http://www.w3.org/2000/svg" viewBox="0 0 462.77 83.2">
  <defs>
    <style>
      .cls-1 {
        fill: #463c35;
      }
    </style>
  </defs>
  <path class="cls-1" d="m40.66,42c-2.3,0-4.18-.36-5.62-1.08-1.44-.72-2.49-1.84-3.14-3.36-.66-1.52-.98-3.48-.98-5.88V14.69l-10.51,25.15h-1.58L5.95,13.73v26.11h-2.4V8.16h5.86l11.62,23.57,9.84-23.57h6.29v23.52c0,2.91.25,5.1.74,6.55.5,1.46,1.42,2.31,2.76,2.57v1.2Z"/>
  <path class="cls-1" d="m45.41,39.84v-16.32c0-1.44-.2-2.6-.6-3.48-.4-.88-1.32-1.32-2.76-1.32h-.48v-1.44h5.76c1.12,0,1.99.19,2.62.58.62.38,1.06,1.02,1.32,1.92.26.9.38,2.14.38,3.74v16.32h-6.24Zm3.12-25.15c-1.22,0-2.12-.37-2.71-1.1-.59-.74-.89-1.58-.89-2.54,0-.83.26-1.49.77-1.97.51-.48,1.14-.72,1.87-.72,1.22,0,2.12.37,2.71,1.1.59.74.89,1.58.89,2.54,0,.83-.26,1.49-.77,1.97-.51.48-1.14.72-1.87.72Z"/>
  <path class="cls-1" d="m67.1,49.44c-2.24,0-4.25-.23-6.02-.7-1.78-.46-3.18-1.24-4.2-2.33-1.02-1.09-1.54-2.56-1.54-4.42,0-1.15.33-2.14.98-2.98.66-.83,1.48-1.52,2.47-2.06.99-.54,2-.94,3.02-1.2-.61-.19-1.12-.5-1.54-.91-.42-.42-.62-.99-.62-1.73,0-.54.16-1.02.48-1.42.32-.4.8-.73,1.44-.98-1.34-.48-2.48-1.3-3.41-2.47-.93-1.17-1.39-2.49-1.39-3.96,0-1.86.46-3.33,1.39-4.42.93-1.09,2.17-1.87,3.72-2.35,1.55-.48,3.29-.72,5.21-.72h10.08v1.3l-4.32.58c1.34.51,2.44,1.3,3.29,2.35.85,1.06,1.27,2.14,1.27,3.26,0,1.82-.42,3.28-1.27,4.37-.85,1.09-2.05,1.86-3.6,2.33-1.55.46-3.37.7-5.45.7-1.44,0-2.6.08-3.48.24-.88.16-1.32.56-1.32,1.2,0,.54.44.89,1.32,1.03.88.14,2.04.23,3.48.26,2.18.03,4.15.33,5.93.89,1.78.56,3.19,1.39,4.25,2.5s1.58,2.5,1.58,4.2c0,1.86-.51,3.33-1.54,4.42-1.02,1.09-2.42,1.86-4.2,2.33s-3.78.7-6.02.7Zm0-2.16c1.6,0,2.88-.42,3.84-1.27.96-.85,1.44-2.18,1.44-4.01,0-1.44-.45-2.62-1.34-3.55-.9-.93-2.08-1.54-3.55-1.82l-2.26-.24c-1.06.45-1.89,1.11-2.5,1.99-.61.88-.91,2.09-.91,3.62,0,1.82.48,3.16,1.44,4.01.96.85,2.24,1.27,3.84,1.27Zm0-17.52c1.12,0,2.04-.42,2.76-1.25.72-.83,1.08-2.24,1.08-4.22,0-1.82-.36-3.21-1.08-4.15-.72-.94-1.64-1.42-2.76-1.42s-2.04.44-2.76,1.32c-.72.88-1.08,2.3-1.08,4.25s.36,3.39,1.08,4.22c.72.83,1.64,1.25,2.76,1.25Z"/>
  <path class="cls-1" d="m83.86,39.84v-16.32c0-1.44-.19-2.6-.58-3.48-.38-.88-1.3-1.32-2.74-1.32h-.48v-1.44h4.75c1.09,0,1.94.14,2.57.41.62.27,1.11.73,1.46,1.37.58-.51,1.37-1.02,2.38-1.51,1.01-.5,2.23-.74,3.67-.74.7,0,1.34.08,1.92.24.58.16,1.07.4,1.49.72.54.38.95.85,1.22,1.39.27.54.41.8.41.77l-2.45,1.87c-.29-.42-.71-.83-1.27-1.25-.56-.42-1.24-.62-2.04-.62-1.02,0-1.89.14-2.59.43-.7.29-1.26.64-1.68,1.06.06.58.11,1.04.14,1.39.03.35.05.66.05.91v16.13h-6.24Z"/>
  <path class="cls-1" d="m108.91,40.32c-1.34,0-2.52-.16-3.53-.48-1.01-.32-1.86-.76-2.54-1.32-.69-.56-1.21-1.24-1.56-2.04-.35-.8-.53-1.68-.53-2.64,0-1.54.36-2.84,1.08-3.91.72-1.07,2.02-1.89,3.91-2.45,1.89-.56,4.54-.84,7.97-.84h.72c0-1.92-.18-3.44-.53-4.56-.35-1.12-.87-1.92-1.56-2.4-.69-.48-1.51-.72-2.47-.72-1.09,0-2.06.27-2.93.82-.86.54-1.49,1.71-1.87,3.5h-2.64c0-.83.06-1.68.17-2.54.11-.86.46-1.62,1.03-2.26.58-.64,1.53-1.08,2.86-1.32,1.33-.24,2.78-.36,4.34-.36s2.96.21,4.18.62c1.22.42,2.25,1.04,3.1,1.87.85.83,1.49,1.88,1.92,3.14.43,1.26.65,2.74.65,4.44v12.96h-4.08l-1.68-2.16h-.24c-.42.67-1.12,1.28-2.11,1.82-.99.54-2.21.82-3.65.82Zm1.44-2.4c1.06,0,1.94-.35,2.64-1.06s1.18-1.39,1.44-2.06v-6h-.72c-2.3,0-3.96.42-4.97,1.25-1.01.83-1.51,2.1-1.51,3.79,0,1.34.28,2.36.84,3.05.56.69,1.32,1.03,2.28,1.03Z"/>
  <path class="cls-1" d="m127.01,39.84v-16.32c0-1.44-.19-2.6-.58-3.48-.38-.88-1.3-1.32-2.74-1.32h-.48v-1.44h4.75c1.09,0,1.94.14,2.57.41.62.27,1.11.73,1.46,1.37.58-.54,1.4-1.06,2.47-1.54,1.07-.48,2.58-.72,4.54-.72s3.7.3,5.04.91c1.34.61,2.36,1.56,3.05,2.86.69,1.3,1.03,2.98,1.03,5.06v14.21h-6.24v-14.26c0-1.57-.2-2.82-.6-3.74-.4-.93-.94-1.6-1.61-2.02-.67-.42-1.46-.62-2.35-.62s-1.69.11-2.38.34c-.69.22-1.26.51-1.7.86v19.44h-6.24Z"/>
  <path class="cls-1" d="m161.62,40.32c-2.18,0-3.88-.59-5.11-1.78-1.23-1.18-1.85-2.93-1.85-5.23v-13.87h-2.88v-2.16h2.88v-4.32l2.4-2.88h3.84v7.2h5.28v2.16h-5.28v14.16c0,1.79.22,3,.65,3.62.43.62,1.05.94,1.85.94s1.57-.14,2.21-.43c.64-.29,1.17-.58,1.58-.86l.67,1.34c-.64.58-1.47,1.07-2.5,1.49-1.02.42-2.27.62-3.74.62Z"/>
  <path class="cls-1" d="m178.99,40.32c-1.98,0-3.61-.18-4.87-.53-1.26-.35-2.22-.83-2.86-1.44-.58-.54-.91-1.33-1.01-2.35-.1-1.02-.14-2.14-.14-3.36h1.68c.26,1.54.88,2.84,1.87,3.91.99,1.07,2.45,1.61,4.37,1.61,1.79,0,3.04-.31,3.74-.94.7-.62,1.06-1.4,1.06-2.33s-.42-1.67-1.25-2.23c-.83-.56-1.86-1.11-3.07-1.66l-2.5-1.06c-1.92-.83-3.42-1.78-4.51-2.83-1.09-1.06-1.63-2.37-1.63-3.94,0-2.08.86-3.66,2.59-4.75,1.73-1.09,3.9-1.63,6.53-1.63,1.98,0,3.61.18,4.87.53,1.26.35,2.22.83,2.86,1.44.58.54.91,1.33,1.01,2.35.1,1.02.14,2.14.14,3.36h-1.68c-.26-1.54-.88-2.84-1.87-3.91-.99-1.07-2.45-1.61-4.37-1.61-1.44,0-2.48.31-3.12.94-.64.62-.96,1.4-.96,2.33,0,.86.3,1.56.91,2.09.61.53,1.44,1.02,2.5,1.46l2.88,1.2c2.21.93,3.87,1.9,4.99,2.9s1.68,2.36,1.68,4.06c0,2.08-.93,3.66-2.78,4.75-1.86,1.09-4.21,1.63-7.06,1.63Z"/>
  <path class="cls-1" d="m215.71,40.32c-2.37,0-4.42-.52-6.14-1.56-1.73-1.04-3.06-2.46-3.98-4.25-.93-1.79-1.39-3.78-1.39-5.95s.46-4.2,1.39-5.98c.93-1.78,2.26-3.18,3.98-4.22,1.73-1.04,3.78-1.56,6.14-1.56s4.46.52,6.17,1.56c1.71,1.04,3.03,2.45,3.96,4.22.93,1.78,1.39,3.77,1.39,5.98s-.46,4.16-1.39,5.95c-.93,1.79-2.25,3.21-3.96,4.25-1.71,1.04-3.77,1.56-6.17,1.56Zm0-2.16c1.12,0,2.06-.42,2.81-1.25.75-.83,1.31-1.98,1.68-3.43.37-1.46.55-3.1.55-4.92s-.18-3.5-.55-4.94c-.37-1.44-.93-2.58-1.68-3.41-.75-.83-1.69-1.25-2.81-1.25s-2.06.42-2.81,1.25c-.75.83-1.31,1.97-1.68,3.41-.37,1.44-.55,3.09-.55,4.94s.18,3.46.55,4.92c.37,1.46.93,2.6,1.68,3.43.75.83,1.69,1.25,2.81,1.25Z"/>
  <path class="cls-1" d="m232.8,39.84v-16.32c0-1.44-.19-2.6-.58-3.48-.38-.88-1.3-1.32-2.74-1.32h-.48v-1.44h4.75c1.09,0,1.94.14,2.57.41.62.27,1.11.73,1.46,1.37.58-.54,1.4-1.06,2.47-1.54s2.58-.72,4.54-.72,3.7.3,5.04.91c1.34.61,2.36,1.56,3.05,2.86s1.03,2.98,1.03,5.06v14.21h-6.24v-14.26c0-1.57-.2-2.82-.6-3.74-.4-.93-.94-1.6-1.61-2.02-.67-.42-1.46-.62-2.35-.62s-1.69.11-2.38.34c-.69.22-1.26.51-1.7.86v19.44h-6.24Z"/>
  <path class="cls-1" d="m279.41,40.32c-2.18,0-3.88-.59-5.11-1.78-1.23-1.18-1.85-2.93-1.85-5.23v-13.87h-2.88v-2.16h2.88v-4.32l2.4-2.88h3.84v7.2h5.28v2.16h-5.28v14.16c0,1.79.22,3,.65,3.62.43.62,1.05.94,1.85.94s1.57-.14,2.21-.43c.64-.29,1.17-.58,1.58-.86l.67,1.34c-.64.58-1.47,1.07-2.5,1.49s-2.27.62-3.74.62Z"/>
  <path class="cls-1" d="m288.43,39.84V14.4c0-1.44-.2-2.6-.6-3.48-.4-.88-1.32-1.32-2.76-1.32h-.48v-1.44h5.76c1.12,0,1.99.19,2.62.58s1.06,1.02,1.32,1.92c.26.9.38,2.14.38,3.74v4.22c.54-.42,1.29-.82,2.23-1.22.94-.4,1.96-.6,3.05-.6s2.17.13,3.24.38c1.07.26,2.06.71,2.95,1.37.9.66,1.61,1.55,2.14,2.69.53,1.14.79,2.58.79,4.34v14.26h-6.24v-14.02c0-1.66-.2-2.98-.6-3.94s-.93-1.65-1.58-2.06c-.66-.42-1.37-.62-2.14-.62-.83,0-1.59.21-2.28.62-.69.42-1.21.77-1.56,1.06v18.96h-6.24Z"/>
  <path class="cls-1" d="m324.24,40.32c-2.24,0-4.19-.51-5.86-1.54-1.66-1.02-2.94-2.42-3.84-4.2-.9-1.78-1.34-3.78-1.34-6.02,0-2.56.46-4.71,1.39-6.46.93-1.74,2.19-3.06,3.79-3.96,1.6-.9,3.39-1.34,5.38-1.34s3.78.4,5.38,1.2c1.6.8,2.86,1.92,3.79,3.36.93,1.44,1.39,3.12,1.39,5.04l-.19,3.02h-14.45c0,3.17.49,5.42,1.46,6.74.98,1.33,2.25,1.99,3.82,1.99,1.66,0,3.02-.38,4.06-1.15s1.98-1.71,2.81-2.83l1.49,1.1c-.45.7-1.05,1.45-1.8,2.23-.75.78-1.71,1.45-2.88,1.99-1.17.54-2.63.82-4.39.82Zm-4.56-13.06h8.16c0-3.17-.38-5.34-1.13-6.53-.75-1.18-1.74-1.78-2.95-1.78-.7,0-1.37.26-1.99.77-.62.51-1.13,1.37-1.51,2.57-.38,1.2-.58,2.86-.58,4.97Z"/>
  <path class="cls-1" d="m388.51,42c-2.3,0-4.18-.36-5.62-1.08-1.44-.72-2.49-1.84-3.14-3.36-.66-1.52-.98-3.48-.98-5.88V14.69l-10.51,25.15h-1.58l-12.86-26.11v26.11h-2.4V8.16h5.86l11.62,23.57,9.84-23.57h6.29v23.52c0,2.91.25,5.1.74,6.55.5,1.46,1.42,2.31,2.76,2.57v1.2Z"/>
  <path class="cls-1" d="m401.81,40.32c-2.37,0-4.42-.52-6.14-1.56-1.73-1.04-3.06-2.46-3.98-4.25-.93-1.79-1.39-3.78-1.39-5.95s.46-4.2,1.39-5.98c.93-1.78,2.26-3.18,3.98-4.22,1.73-1.04,3.78-1.56,6.14-1.56s4.46.52,6.17,1.56c1.71,1.04,3.03,2.45,3.96,4.22.93,1.78,1.39,3.77,1.39,5.98s-.46,4.16-1.39,5.95c-.93,1.79-2.25,3.21-3.96,4.25-1.71,1.04-3.77,1.56-6.17,1.56Zm0-2.16c1.12,0,2.06-.42,2.81-1.25.75-.83,1.31-1.98,1.68-3.43.37-1.46.55-3.1.55-4.92s-.18-3.5-.55-4.94c-.37-1.44-.93-2.58-1.68-3.41-.75-.83-1.69-1.25-2.81-1.25s-2.06.42-2.81,1.25c-.75.83-1.31,1.97-1.68,3.41s-.55,3.09-.55,4.94.18,3.46.55,4.92c.37,1.46.93,2.6,1.68,3.43.75.83,1.69,1.25,2.81,1.25Z"/>
  <path class="cls-1" d="m426.62,40.32l-8.11-17.52c-.83-1.76-1.55-3.01-2.16-3.74-.61-.74-1.31-1.14-2.11-1.2v-.96c.13,0,.4-.02.82-.05.42-.03.74-.05.96-.05,1.28,0,2.47.15,3.58.46,1.1.3,2.13.89,3.07,1.75.94.86,1.8,2.13,2.57,3.79l4.22,9.22,6.53-14.74h2.59l-10.22,23.04h-1.73Z"/>
  <path class="cls-1" d="m451.15,40.32c-2.24,0-4.19-.51-5.86-1.54-1.66-1.02-2.94-2.42-3.84-4.2-.9-1.78-1.34-3.78-1.34-6.02,0-2.56.46-4.71,1.39-6.46.93-1.74,2.19-3.06,3.79-3.96,1.6-.9,3.39-1.34,5.38-1.34s3.78.4,5.38,1.2c1.6.8,2.86,1.92,3.79,3.36.93,1.44,1.39,3.12,1.39,5.04l-.19,3.02h-14.45c0,3.17.49,5.42,1.46,6.74.98,1.33,2.25,1.99,3.82,1.99,1.66,0,3.02-.38,4.06-1.15s1.98-1.71,2.81-2.83l1.49,1.1c-.45.7-1.05,1.45-1.8,2.23-.75.78-1.71,1.45-2.88,1.99-1.17.54-2.63.82-4.39.82Zm-4.56-13.06h8.16c0-3.17-.38-5.34-1.13-6.53-.75-1.18-1.74-1.78-2.95-1.78-.7,0-1.37.26-1.99.77-.62.51-1.13,1.37-1.51,2.57-.38,1.2-.58,2.86-.58,4.97Z"/>
  <path class="cls-1" d="m14.53,72.1c-.61,0-1.19-.12-1.74-.36-.55-.24-1.1-.64-1.62-1.18-.53-.55-1.08-1.29-1.65-2.22l-2.6-4.34h-1.04v7.85h-3.41v-13.78c0-.78-.11-1.41-.33-1.89-.22-.48-.71-.71-1.5-.71h-.26v-.78h7.18c.47,0,1.01.03,1.62.09s1.23.18,1.86.36c.62.18,1.2.45,1.74.79.54.35.97.8,1.3,1.37.33.56.49,1.26.49,2.09,0,.92-.2,1.67-.61,2.25-.41.58-.93,1.04-1.57,1.37s-1.32.59-2.03.78l2.73,4.55c.66,1.11,1.27,1.85,1.82,2.21s1.02.58,1.4.65v.65c-.14.07-.39.13-.74.18-.36.05-.71.08-1.05.08Zm-8.66-9.15h1.56c.42,0,.83-.06,1.25-.18.42-.12.79-.32,1.13-.6s.61-.65.82-1.12c.21-.47.31-1.04.31-1.72s-.1-1.24-.3-1.7c-.2-.46-.47-.83-.81-1.12-.34-.29-.71-.49-1.12-.61-.41-.12-.82-.18-1.24-.18-.14,0-.34,0-.61.03-.27.02-.6.07-1,.16v7.05Z"/>
  <path class="cls-1" d="m18.85,71.84v-8.84c0-.78-.11-1.41-.33-1.88-.22-.48-.71-.71-1.5-.71h-.26v-.78h3.12c.61,0,1.08.1,1.42.31.34.21.58.56.71,1.04.14.49.21,1.16.21,2.03v8.84h-3.38Zm1.69-13.62c-.66,0-1.15-.2-1.47-.6s-.48-.86-.48-1.38c0-.45.14-.81.42-1.07.28-.26.62-.39,1.01-.39.66,0,1.15.2,1.47.6.32.4.48.86.48,1.38,0,.45-.14.81-.42,1.07s-.62.39-1.01.39Z"/>
  <path class="cls-1" d="m30.47,72.1c-1.08,0-1.95-.1-2.64-.29-.69-.19-1.2-.45-1.55-.78-.31-.29-.49-.72-.55-1.27-.05-.55-.08-1.16-.08-1.82h.91c.14.83.48,1.54,1.01,2.12.54.58,1.33.87,2.37.87.97,0,1.65-.17,2.03-.51s.57-.76.57-1.26-.23-.91-.68-1.21c-.45-.3-1.01-.6-1.66-.9l-1.35-.57c-1.04-.45-1.85-.96-2.44-1.53-.59-.57-.88-1.28-.88-2.13,0-1.13.47-1.98,1.4-2.57.94-.59,2.11-.88,3.54-.88,1.07,0,1.95.09,2.64.29.68.19,1.2.45,1.55.78.31.29.49.72.55,1.27.05.55.08,1.16.08,1.82h-.91c-.14-.83-.48-1.54-1.01-2.12s-1.33-.87-2.37-.87c-.78,0-1.34.17-1.69.51-.35.34-.52.76-.52,1.26,0,.47.16.85.49,1.13.33.29.78.55,1.35.79l1.56.65c1.2.5,2.1,1.03,2.7,1.57.61.55.91,1.28.91,2.2,0,1.13-.5,1.99-1.51,2.57-1.01.59-2.28.88-3.82.88Z"/>
  <path class="cls-1" d="m48.78,72.1c-.73,0-1.41-.15-2.05-.46-.64-.3-1.25-.84-1.82-1.62l-2.5-3.28v5.1h-3.38v-13.78c0-.78-.11-1.41-.33-1.89-.22-.48-.71-.71-1.49-.71h-.26v-.78h3.12c.61,0,1.08.1,1.42.31s.58.55.71,1.04.21,1.16.21,2.03v7.41l3.15-3.85c.54-.64,1.07-1.13,1.59-1.48.52-.35,1.24-.52,2.16-.52h.52v.68c-.52,0-.99.1-1.4.31s-.81.54-1.2.99l-2.52,3.07,3.46,4.58c.45.61.88,1.07,1.27,1.38.4.31.78.51,1.14.6v.62c-.14.07-.39.13-.75.18-.36.05-.71.08-1.04.08Z"/>
  <path class="cls-1" d="m57.33,72.1c-1.08,0-1.95-.1-2.64-.29-.69-.19-1.2-.45-1.55-.78-.31-.29-.49-.72-.55-1.27-.05-.55-.08-1.16-.08-1.82h.91c.14.83.48,1.54,1.01,2.12.54.58,1.33.87,2.37.87.97,0,1.65-.17,2.03-.51s.57-.76.57-1.26-.23-.91-.68-1.21c-.45-.3-1.01-.6-1.66-.9l-1.35-.57c-1.04-.45-1.85-.96-2.44-1.53-.59-.57-.88-1.28-.88-2.13,0-1.13.47-1.98,1.4-2.57.94-.59,2.11-.88,3.54-.88,1.07,0,1.95.09,2.64.29.68.19,1.2.45,1.55.78.31.29.49.72.55,1.27.05.55.08,1.16.08,1.82h-.91c-.14-.83-.48-1.54-1.01-2.12s-1.33-.87-2.37-.87c-.78,0-1.34.17-1.69.51-.35.34-.52.76-.52,1.26,0,.47.16.85.49,1.13.33.29.78.55,1.35.79l1.56.65c1.2.5,2.1,1.03,2.7,1.57.61.55.91,1.28.91,2.2,0,1.13-.5,1.99-1.51,2.57-1.01.59-2.28.88-3.82.88Z"/>
  <path class="cls-1" d="m78.78,72.1c-1.28,0-2.39-.28-3.33-.84s-1.66-1.33-2.16-2.3c-.5-.97-.75-2.04-.75-3.22s.25-2.27.75-3.24c.5-.96,1.22-1.72,2.16-2.29s2.04-.84,3.33-.84,2.41.28,3.34.84c.93.56,1.64,1.33,2.15,2.29.5.96.75,2.04.75,3.24s-.25,2.25-.75,3.22c-.5.97-1.22,1.74-2.15,2.3-.93.56-2.04.84-3.34.84Zm0-1.17c.61,0,1.11-.22,1.52-.68.41-.45.71-1.07.91-1.86.2-.79.3-1.68.3-2.67s-.1-1.9-.3-2.68c-.2-.78-.5-1.39-.91-1.85-.41-.45-.91-.68-1.52-.68s-1.11.23-1.52.68c-.41.45-.71,1.07-.91,1.85-.2.78-.3,1.67-.3,2.68s.1,1.88.3,2.67c.2.79.5,1.41.91,1.86.41.45.91.68,1.52.68Z"/>
  <path class="cls-1" d="m88.61,71.84v-11.05h-1.56v-1.17h1.56v-.7c0-.99.19-1.82.56-2.48.37-.67.94-1.17,1.69-1.51s1.69-.51,2.82-.51c.45,0,.9.04,1.35.12s.79.19,1.01.33c.23.12.42.28.58.47.16.19.31.41.43.65l-1.04.91c-.26-.4-.58-.71-.96-.95-.38-.23-.8-.35-1.25-.35-.59,0-1.04.24-1.35.71-.31.48-.47,1.35-.47,2.61v.7h3.38v1.17h-3.38v11.05h-3.38Z"/>
  <path class="cls-1" d="m110.89,72.08l-5.62-14.35c-.4-.99-.8-1.67-1.2-2.05-.4-.38-.86-.61-1.38-.68v-.52c.07,0,.24,0,.51-.03.27-.02.46-.03.58-.03.61,0,1.23.07,1.87.2.64.13,1.25.43,1.82.9.57.47,1.06,1.21,1.46,2.21l3.51,8.97,2.34-6.66-.91-2.31c-.4-.99-.83-1.67-1.29-2.05-.46-.38-.95-.61-1.47-.68v-.52c.07,0,.23,0,.47-.03s.42-.03.55-.03c.61,0,1.23.07,1.87.21s1.25.44,1.82.9c.57.46,1.06,1.19,1.46,2.2l3.72,9.46,4.45-12.51h1.25l-6.16,17.39h-1.04l-4-10.19-3.56,10.19h-1.04Z"/>
  <path class="cls-1" d="m133.33,72.1c-1.21,0-2.27-.28-3.17-.83-.9-.55-1.59-1.31-2.08-2.27s-.73-2.05-.73-3.26c0-1.39.25-2.55.75-3.5.5-.95,1.19-1.66,2.05-2.15.87-.49,1.84-.73,2.91-.73s2.04.22,2.91.65c.87.43,1.55,1.04,2.05,1.82.5.78.75,1.69.75,2.73l-.1,1.64h-7.83c0,1.72.26,2.93.79,3.65.53.72,1.22,1.08,2.07,1.08.9,0,1.63-.21,2.2-.62s1.07-.93,1.52-1.53l.81.6c-.24.38-.57.78-.98,1.21s-.93.78-1.56,1.08c-.63.29-1.43.44-2.38.44Zm-2.47-7.07h4.42c0-1.72-.2-2.89-.61-3.54s-.94-.96-1.6-.96c-.38,0-.74.14-1.08.42s-.61.74-.82,1.39c-.21.65-.31,1.55-.31,2.69Z"/>
  <path class="cls-1" d="m146.35,72.1c-1.08,0-1.95-.1-2.64-.29-.69-.19-1.2-.45-1.55-.78-.31-.29-.49-.72-.55-1.27-.05-.55-.08-1.16-.08-1.82h.91c.14.83.48,1.54,1.01,2.12.54.58,1.33.87,2.37.87.97,0,1.65-.17,2.03-.51s.57-.76.57-1.26-.23-.91-.68-1.21c-.45-.3-1.01-.6-1.66-.9l-1.35-.57c-1.04-.45-1.85-.96-2.44-1.53-.59-.57-.88-1.28-.88-2.13,0-1.13.47-1.98,1.4-2.57.94-.59,2.11-.88,3.54-.88,1.07,0,1.95.09,2.64.29.68.19,1.2.45,1.55.78.31.29.49.72.55,1.27.05.55.08,1.16.08,1.82h-.91c-.14-.83-.48-1.54-1.01-2.12s-1.33-.87-2.37-.87c-.78,0-1.34.17-1.69.51-.35.34-.52.76-.52,1.26,0,.47.16.85.49,1.13.33.29.78.55,1.35.79l1.56.65c1.2.5,2.1,1.03,2.7,1.57.61.55.91,1.28.91,2.2,0,1.13-.5,1.99-1.51,2.57-1.01.59-2.28.88-3.82.88Z"/>
  <path class="cls-1" d="m159.22,72.1c-1.18,0-2.1-.32-2.77-.96-.67-.64-1-1.59-1-2.83v-7.51h-1.56v-1.17h1.56v-2.34l1.3-1.56h2.08v3.9h2.86v1.17h-2.86v7.67c0,.97.12,1.62.35,1.96s.57.51,1,.51.85-.08,1.2-.23c.35-.16.63-.31.86-.47l.36.73c-.35.31-.8.58-1.35.81-.55.23-1.23.34-2.03.34Z"/>
  <path class="cls-1" d="m186.94,71.94c-.57,0-1.17-.07-1.81-.22-.63-.15-1.24-.46-1.82-.95-.58-.48-1.08-1.22-1.5-2.21l-.6-1.46h-6.92l-2.13,4.73h-1.35l7.67-17.16h1.17l5.82,13.88c.31.76.69,1.37,1.14,1.82.45.45.97.71,1.56.78v.65c-.14.04-.33.07-.58.09-.25.03-.47.04-.66.04Zm-12.09-6.01h5.88l-2.86-6.79-3.02,6.79Z"/>
  <path class="cls-1" d="m190.09,71.84v-11.05h-1.56v-1.17h1.56v-.7c0-.99.19-1.82.56-2.48.37-.67.94-1.17,1.69-1.51s1.69-.51,2.82-.51c.45,0,.9.04,1.35.12s.79.19,1.01.33c.23.12.42.28.58.47.16.19.31.41.43.65l-1.04.91c-.26-.4-.58-.71-.96-.95-.38-.23-.8-.35-1.25-.35-.59,0-1.04.24-1.35.71-.31.48-.47,1.35-.47,2.61v.7h3.38v1.17h-3.38v11.05h-3.38Z"/>
  <path class="cls-1" d="m199.97,71.84v-8.84c0-.78-.1-1.41-.31-1.88s-.7-.71-1.48-.71h-.26v-.78h2.57c.59,0,1.05.07,1.39.22.34.15.6.39.79.74.31-.28.74-.55,1.29-.82.55-.27,1.21-.4,1.99-.4.38,0,.73.04,1.04.13s.58.22.81.39c.29.21.52.46.66.75.15.29.22.43.22.42l-1.33,1.01c-.16-.23-.39-.45-.69-.68-.3-.22-.67-.34-1.1-.34-.55,0-1.02.08-1.4.23-.38.16-.69.35-.91.57.03.31.06.56.08.75.02.19.03.36.03.49v8.74h-3.38Z"/>
  <path class="cls-1" d="m211.59,71.84v-8.84c0-.78-.11-1.41-.33-1.88-.22-.48-.71-.71-1.5-.71h-.26v-.78h3.12c.61,0,1.08.1,1.42.31.34.21.58.56.71,1.04.14.49.21,1.16.21,2.03v8.84h-3.38Zm1.69-13.62c-.66,0-1.15-.2-1.47-.6s-.48-.86-.48-1.38c0-.45.14-.81.42-1.07.28-.26.62-.39,1.01-.39.66,0,1.15.2,1.47.6.32.4.48.86.48,1.38,0,.45-.14.81-.42,1.07s-.62.39-1.01.39Z"/>
  <path class="cls-1" d="m224.43,72.1c-1.39,0-2.54-.29-3.47-.87-.93-.58-1.62-1.36-2.08-2.33-.46-.97-.69-2.03-.69-3.17s.23-2.22.69-3.18c.46-.96,1.15-1.73,2.08-2.31.93-.58,2.08-.87,3.47-.87.99,0,1.82.07,2.51.21.68.14,1.19.37,1.52.7.33.33.52.77.57,1.33.05.56.08,1.33.08,2.31h-.78c-.07-1.11-.41-1.95-1.03-2.52-.62-.57-1.44-.86-2.48-.86-.62,0-1.17.19-1.64.56-.47.37-.83.95-1.09,1.72-.26.77-.39,1.75-.39,2.92s.12,2.1.36,2.87c.24.77.6,1.35,1.08,1.74.48.39,1.08.58,1.81.58.9,0,1.63-.21,2.2-.62.56-.42,1.07-.93,1.52-1.53l.8.6c-.24.38-.57.78-.97,1.21-.41.42-.94.78-1.59,1.08-.65.29-1.48.44-2.48.44Z"/>
  <path class="cls-1" d="m236.11,72.1c-.73,0-1.37-.09-1.91-.26s-1-.41-1.38-.71c-.37-.3-.65-.67-.84-1.11-.19-.43-.29-.91-.29-1.43,0-.83.2-1.54.58-2.12.39-.58,1.1-1.02,2.12-1.33,1.02-.3,2.46-.46,4.32-.46h.39c0-1.04-.1-1.86-.29-2.47-.19-.61-.47-1.04-.84-1.3-.37-.26-.82-.39-1.34-.39-.59,0-1.12.15-1.59.44-.47.29-.81.93-1.01,1.9h-1.43c0-.45.03-.91.09-1.38s.25-.88.56-1.22c.31-.35.83-.58,1.55-.72.72-.13,1.5-.19,2.35-.19s1.6.11,2.26.34c.66.23,1.22.56,1.68,1.01.46.45.81,1.02,1.04,1.7.23.68.35,1.49.35,2.41v7.02h-2.21l-.91-1.17h-.13c-.23.36-.61.69-1.14.99-.54.29-1.2.44-1.98.44Zm.78-1.3c.57,0,1.05-.19,1.43-.57.38-.38.64-.75.78-1.12v-3.25h-.39c-1.25,0-2.15.23-2.69.68-.55.45-.82,1.13-.82,2.05,0,.73.15,1.28.46,1.65.3.37.71.56,1.24.56Z"/>
  <path class="cls-1" d="m246.69,71.84v-8.84c0-.78-.1-1.41-.31-1.88s-.7-.71-1.48-.71h-.26v-.78h2.57c.59,0,1.05.07,1.39.22.34.15.6.39.79.74.31-.29.76-.57,1.34-.83.58-.26,1.4-.39,2.46-.39s2,.17,2.73.49c.73.33,1.28.84,1.65,1.55s.56,1.62.56,2.74v7.7h-3.38v-7.72c0-.85-.11-1.53-.32-2.03-.22-.5-.51-.87-.87-1.09-.36-.22-.79-.34-1.27-.34s-.91.06-1.29.18c-.37.12-.68.28-.92.47v10.53h-3.38Z"/>
  <path class="cls-1" d="m289.64,73.01c-1.25,0-2.26-.2-3.04-.58-.78-.39-1.35-1-1.7-1.82-.36-.82-.53-1.88-.53-3.18v-9.2l-5.69,13.62h-.86l-6.97-14.14v14.14h-1.3v-17.16h3.17l6.29,12.77,5.33-12.77h3.41v12.74c0,1.58.13,2.76.4,3.55.27.79.77,1.25,1.5,1.39v.65Z"/>
  <path class="cls-1" d="m292.99,71.84v-8.84c0-.78-.11-1.41-.33-1.88s-.71-.71-1.49-.71h-.26v-.78h3.12c.61,0,1.08.1,1.42.31s.58.56.71,1.04c.14.49.21,1.16.21,2.03v8.84h-3.38Zm1.69-13.62c-.66,0-1.15-.2-1.47-.6-.32-.4-.48-.86-.48-1.38,0-.45.14-.81.42-1.07.28-.26.62-.39,1.01-.39.66,0,1.15.2,1.47.6.32.4.48.86.48,1.38,0,.45-.14.81-.42,1.07s-.62.39-1.01.39Z"/>
  <path class="cls-1" d="m305.4,77.04c-1.21,0-2.3-.13-3.26-.38-.96-.25-1.72-.67-2.27-1.26-.56-.59-.83-1.39-.83-2.39,0-.62.18-1.16.53-1.61.35-.45.8-.82,1.34-1.12.54-.29,1.08-.51,1.64-.65-.33-.1-.61-.27-.83-.49-.23-.22-.34-.54-.34-.94,0-.29.09-.55.26-.77.17-.22.43-.39.78-.53-.73-.26-1.34-.71-1.85-1.34-.5-.63-.75-1.35-.75-2.14,0-1,.25-1.8.75-2.39.5-.59,1.17-1.01,2.01-1.27s1.78-.39,2.82-.39h5.46v.7l-2.34.31c.73.28,1.32.7,1.78,1.27.46.57.69,1.16.69,1.77,0,.99-.23,1.78-.69,2.37-.46.59-1.11,1.01-1.95,1.26s-1.82.38-2.95.38c-.78,0-1.41.04-1.89.13s-.71.3-.71.65c0,.29.24.48.71.56s1.11.13,1.89.14c1.18.02,2.25.18,3.21.48.96.3,1.73.75,2.3,1.35.57.6.86,1.36.86,2.28,0,1-.28,1.8-.83,2.39-.56.59-1.31,1.01-2.28,1.26-.96.25-2.05.38-3.26.38Zm0-1.17c.87,0,1.56-.23,2.08-.69.52-.46.78-1.18.78-2.17,0-.78-.24-1.42-.73-1.92-.49-.5-1.13-.83-1.92-.99l-1.22-.13c-.57.24-1.02.6-1.35,1.08-.33.48-.49,1.13-.49,1.96,0,.99.26,1.71.78,2.17.52.46,1.21.69,2.08.69Zm0-9.49c.61,0,1.1-.23,1.49-.68.39-.45.59-1.21.59-2.29,0-.99-.2-1.74-.59-2.25-.39-.51-.89-.77-1.49-.77s-1.11.24-1.5.71c-.39.48-.58,1.24-.58,2.3s.19,1.84.58,2.29c.39.45.89.68,1.5.68Z"/>
  <path class="cls-1" d="m315.12,71.84v-8.84c0-.78-.1-1.41-.31-1.88s-.7-.71-1.48-.71h-.26v-.78h2.57c.59,0,1.05.07,1.39.22.34.15.6.39.79.74.31-.28.74-.55,1.29-.82.55-.27,1.21-.4,1.99-.4.38,0,.73.04,1.04.13.31.09.58.22.81.39.29.21.52.46.66.75.15.29.22.43.22.42l-1.33,1.01c-.16-.23-.39-.45-.69-.68-.3-.22-.67-.34-1.11-.34-.55,0-1.02.08-1.4.23-.38.16-.68.35-.91.57.03.31.06.56.08.75.02.19.03.36.03.49v8.74h-3.38Z"/>
  <path class="cls-1" d="m329.86,72.1c-.73,0-1.37-.09-1.91-.26s-1-.41-1.38-.71c-.37-.3-.65-.67-.84-1.11-.19-.43-.29-.91-.29-1.43,0-.83.2-1.54.58-2.12.39-.58,1.1-1.02,2.12-1.33,1.02-.3,2.46-.46,4.32-.46h.39c0-1.04-.1-1.86-.29-2.47-.19-.61-.47-1.04-.84-1.3-.37-.26-.82-.39-1.34-.39-.59,0-1.12.15-1.59.44-.47.29-.81.93-1.01,1.9h-1.43c0-.45.03-.91.09-1.38s.25-.88.56-1.22c.31-.35.83-.58,1.55-.72.72-.13,1.5-.19,2.35-.19s1.6.11,2.26.34c.66.23,1.22.56,1.68,1.01.46.45.81,1.02,1.04,1.7.23.68.35,1.49.35,2.41v7.02h-2.21l-.91-1.17h-.13c-.23.36-.61.69-1.14.99-.54.29-1.2.44-1.98.44Zm.78-1.3c.57,0,1.05-.19,1.43-.57.38-.38.64-.75.78-1.12v-3.25h-.39c-1.25,0-2.15.23-2.69.68-.55.45-.82,1.13-.82,2.05,0,.73.15,1.28.46,1.65.3.37.71.56,1.24.56Z"/>
  <path class="cls-1" d="m344.24,72.1c-1.18,0-2.1-.32-2.77-.96-.67-.64-1-1.59-1-2.83v-7.51h-1.56v-1.17h1.56v-2.34l1.3-1.56h2.08v3.9h2.86v1.17h-2.86v7.67c0,.97.12,1.62.35,1.96s.57.51,1,.51.85-.08,1.2-.23c.35-.16.63-.31.86-.47l.36.73c-.35.31-.8.58-1.35.81-.56.23-1.23.34-2.03.34Z"/>
  <path class="cls-1" d="m350.4,71.84v-8.84c0-.78-.11-1.41-.33-1.88s-.71-.71-1.49-.71h-.26v-.78h3.12c.61,0,1.08.1,1.42.31s.58.56.71,1.04c.14.49.21,1.16.21,2.03v8.84h-3.38Zm1.69-13.62c-.66,0-1.15-.2-1.47-.6-.32-.4-.48-.86-.48-1.38,0-.45.14-.81.42-1.07.28-.26.62-.39,1.01-.39.66,0,1.15.2,1.47.6.32.4.48.86.48,1.38,0,.45-.14.81-.42,1.07s-.62.39-1.01.39Z"/>
  <path class="cls-1" d="m363.25,72.1c-1.28,0-2.39-.28-3.33-.84-.94-.56-1.66-1.33-2.16-2.3-.5-.97-.75-2.04-.75-3.22s.25-2.27.75-3.24c.5-.96,1.22-1.72,2.16-2.29.94-.56,2.04-.84,3.33-.84s2.41.28,3.34.84c.93.56,1.64,1.33,2.15,2.29.5.96.75,2.04.75,3.24s-.25,2.25-.75,3.22c-.5.97-1.22,1.74-2.15,2.3-.93.56-2.04.84-3.34.84Zm0-1.17c.61,0,1.11-.22,1.52-.68.41-.45.71-1.07.91-1.86.2-.79.3-1.68.3-2.67s-.1-1.9-.3-2.68c-.2-.78-.5-1.39-.91-1.85-.41-.45-.92-.68-1.52-.68s-1.11.23-1.52.68c-.41.45-.71,1.07-.91,1.85-.2.78-.3,1.67-.3,2.68s.1,1.88.3,2.67c.2.79.5,1.41.91,1.86.41.45.91.68,1.52.68Z"/>
  <path class="cls-1" d="m373.28,71.84v-8.84c0-.78-.1-1.41-.31-1.88s-.7-.71-1.48-.71h-.26v-.78h2.57c.59,0,1.05.07,1.39.22.34.15.6.39.79.74.31-.29.76-.57,1.34-.83.58-.26,1.4-.39,2.46-.39s2,.17,2.73.49c.73.33,1.28.84,1.65,1.55s.56,1.62.56,2.74v7.7h-3.38v-7.72c0-.85-.11-1.53-.32-2.03-.22-.5-.51-.87-.87-1.09-.36-.22-.79-.34-1.27-.34s-.91.06-1.29.18c-.37.12-.68.28-.92.47v10.53h-3.38Z"/>
</svg>