<?xml version="1.0" encoding="UTF-8"?>
<svg id="Layer_1" data-name="Layer 1" xmlns="http://www.w3.org/2000/svg" width="200" height="60" viewBox="0 0 200 60">
  <defs>
    <style>
      .cls-1 {
        fill: #f79c7c;
      }

      .cls-2 {
        fill: #f47b50;
      }

      .cls-3 {
        fill: #f9bda7;
      }

      .cls-4 {
        fill: #f15a24;
      }

      .cls-5 {
        fill: #463c35;
      }
    </style>
  </defs>
  <g>
    <path class="cls-5" d="m165.44,39.44v8.73h-1.32v-7.41h-.05l-2.09,1.36v-1.26l2.18-1.42h1.28Z"/>
    <path class="cls-5" d="m170.84,48.31c-.67,0-1.25-.18-1.73-.53s-.84-.87-1.1-1.54c-.25-.67-.38-1.48-.38-2.43s.13-1.75.38-2.42c.25-.67.62-1.18,1.1-1.53.48-.35,1.05-.53,1.72-.53s1.24.18,1.72.53c.48.35.84.87,1.1,1.53.25.67.38,1.48.38,2.42s-.13,1.76-.38,2.44c-.25.67-.62,1.18-1.1,1.54s-1.05.53-1.72.53Zm0-1.14c.59,0,1.05-.29,1.39-.87.33-.58.5-1.41.5-2.5,0-.72-.08-1.34-.23-1.84-.15-.5-.37-.88-.65-1.14-.28-.26-.62-.39-1.01-.39-.59,0-1.05.29-1.38.87-.33.58-.5,1.41-.51,2.5,0,.73.08,1.34.23,1.84.15.5.37.88.65,1.14.28.26.62.39,1.01.39Z"/>
    <path class="cls-5" d="m175.83,44.39v-1.14h5.76v1.14h-5.76Zm2.31,2.31v-5.76h1.15v5.76h-1.15Z"/>
  </g>
  <circle class="cls-4" cx="172" cy="16" r="16"/>
  <g>
    <path class="cls-5" d="m114.1,48.28c-.53,0-1.01-.1-1.44-.31s-.76-.49-1.02-.85c-.25-.36-.39-.77-.4-1.24h1.28c.03.38.2.68.5.92.3.24.66.36,1.08.36.33,0,.63-.08.89-.23.26-.16.46-.37.61-.64.15-.27.22-.58.22-.93s-.08-.67-.23-.95c-.15-.28-.36-.5-.63-.66s-.58-.24-.92-.24c-.26,0-.53.04-.8.14-.27.09-.48.21-.65.36l-1.21-.18.49-4.4h4.8v1.13h-3.7l-.28,2.44h.05c.17-.17.4-.3.68-.41.28-.11.59-.17.91-.17.53,0,1,.13,1.42.38.42.25.74.6.98,1.03.24.44.36.94.36,1.5,0,.57-.12,1.07-.38,1.51-.26.44-.61.79-1.07,1.05-.45.25-.97.38-1.56.38Z"/>
    <path class="cls-5" d="m122.53,43.25v1.11h-3.87v-1.11h3.87Z"/>
    <path class="cls-5" d="m127.12,39.32c.39,0,.77.07,1.15.21.38.14.72.37,1.02.68.31.32.55.74.73,1.28.18.54.28,1.2.28,2,0,.76-.08,1.44-.23,2.04-.15.59-.37,1.1-.66,1.51-.29.41-.63.72-1.04.93s-.86.32-1.37.32-.98-.1-1.38-.31-.73-.49-.98-.85c-.25-.36-.41-.78-.47-1.25h1.3c.09.38.26.68.52.91.26.23.6.35,1.02.35.64,0,1.14-.28,1.5-.84.36-.56.54-1.34.54-2.34h-.07c-.15.24-.33.45-.55.63-.22.18-.47.31-.74.41-.27.1-.56.15-.87.15-.5,0-.96-.12-1.37-.37s-.74-.59-.98-1.02c-.24-.43-.37-.92-.37-1.48s.13-1.05.38-1.5c.25-.45.6-.8,1.06-1.07s.99-.39,1.6-.39Zm0,1.11c-.33,0-.63.08-.9.25-.27.16-.47.38-.63.66s-.23.58-.23.92.07.64.22.92.35.49.61.65c.26.16.56.24.89.24.25,0,.48-.05.7-.14s.41-.23.57-.4c.16-.17.29-.37.38-.59.09-.22.14-.45.14-.69,0-.32-.08-.62-.23-.9-.15-.28-.36-.5-.62-.67s-.57-.25-.9-.25Z"/>
  </g>
  <circle class="cls-2" cx="120.69" cy="16" r="11.31"/>
  <g>
    <path class="cls-5" d="m62.7,48.28c-.59,0-1.11-.1-1.57-.3-.46-.2-.82-.48-1.09-.84s-.41-.78-.43-1.25h1.34c.02.26.1.48.26.67.16.19.36.33.62.44.26.1.54.15.85.15.34,0,.65-.06.91-.18s.47-.29.62-.5c.15-.21.23-.46.23-.74s-.07-.55-.22-.77c-.15-.22-.37-.4-.65-.53-.29-.13-.63-.19-1.03-.19h-.74v-1.07h.74c.32,0,.61-.06.85-.17.25-.12.44-.28.58-.49.14-.21.21-.45.21-.74s-.06-.5-.18-.71-.29-.36-.51-.47c-.22-.11-.48-.17-.78-.17s-.55.05-.79.16c-.25.1-.45.25-.6.44s-.24.42-.25.69h-1.27c.01-.47.15-.89.42-1.24.27-.36.62-.64,1.05-.84s.92-.3,1.46-.3,1.04.11,1.45.33c.41.22.72.51.95.87s.33.76.33,1.18c0,.49-.13.9-.41,1.24-.27.34-.64.57-1.09.69v.07c.58.09,1.03.32,1.35.69.32.37.48.83.48,1.39,0,.48-.13.91-.4,1.29s-.63.68-1.1.9c-.46.22-.99.33-1.59.33Z"/>
    <path class="cls-5" d="m71.26,43.25v1.11h-3.87v-1.11h3.87Z"/>
    <path class="cls-5" d="m72.76,46.46v-1.07l3.77-5.96h.84v1.57h-.53l-2.7,4.27v.07h5.17v1.12h-6.55Zm4.14,1.7v-2.51s0-6.21,0-6.21h1.25v8.73h-1.26Z"/>
  </g>
  <circle class="cls-1" cx="69.39" cy="16" r="8.76"/>
  <g>
    <path class="cls-5" d="m13.11,39.44v8.73h-1.32v-7.41h-.05l-2.09,1.36v-1.26l2.18-1.42h1.28Z"/>
    <path class="cls-5" d="m19.35,43.25v1.11h-3.87v-1.11h3.87Z"/>
    <path class="cls-5" d="m20.68,48.17v-.95l2.95-3.06c.32-.33.58-.62.78-.88.21-.25.36-.49.46-.72.1-.23.15-.47.15-.72,0-.29-.07-.54-.2-.75-.14-.21-.32-.38-.56-.49-.24-.12-.5-.17-.8-.17-.31,0-.58.06-.82.19-.23.13-.41.31-.54.54-.12.23-.19.51-.19.82h-1.26c0-.53.12-1,.37-1.39.25-.4.58-.71,1.01-.93.43-.22.91-.33,1.45-.33s1.03.11,1.45.33c.42.22.75.51.98.89.24.37.35.79.35,1.26,0,.32-.06.64-.18.95-.12.31-.33.65-.63,1.03-.3.38-.71.84-1.24,1.38l-1.73,1.82v.06h3.93v1.13h-5.74Z"/>
  </g>
  <circle class="cls-3" cx="18.08" cy="16" r="5.06"/>
</svg>