<?xml version="1.0" encoding="UTF-8"?>
<svg id="Layer_1" data-name="Layer 1" xmlns="http://www.w3.org/2000/svg" width="32" height="64" viewBox="0 0 32 64">
  <defs>
    <style>
      .cls-1 {
        fill: #463c35;
      }
    </style>
  </defs>
  <path class="cls-1" d="m19.81,33.89l-.71,2.44s1.01,1.61,1.21,1.99.78,4.79.78,4.79c1.23,3.15,2.52,9.25,3.24,12.44.98-1.5,5.17-1.56,2.81,1.16-1.94,1.32-2.12,2.19-3.73,3.32-.82.31-2.28-.14-1.96-.76-.05-.15,0-.91,0-.91h-.31c-.61-1.92-1.83-7.62-2.53-9.86-.42-.61-2.37-5.55-2.18-6.53-.29.52-1.07,1.19-1.23,2.13-.12.74-.45,1.92-.67,1.97-.99.9-1.81,3.52-2.16,4.68,0,0-1.85,4.06-2.05,4.39-.48,1.11-1.49,1.77-1.27,2.82.16.69-1.06.61-.24,1.65-.09.21,3.3.84,3.4.9,2.29,1.96-1.97,3.09-3.53,2.87-1.51.18-5.85,1.89-4.34-1.56-.37-.71-.1-1.59.73-1.8l-.83-.79c.3-3.3,3.88-12.09,5.82-14.75,0,0,2.54-7.79,2.64-8.12.44-1.18-1.53-1.71-1.64-3.05-.04-.7-.1-1.3-.1-1.3h-.65c.02-1.55-.14-4.63-.36-6.16,0,0,.76-5.2.76-5.2-.28.99-1.54,4.95-1.56,5.91.18,1.58.07,4.7-.23,6.26l-.61-.06c-.02.97.66,1.87.27,2.94-.33.68-2.11,1.2-2.05.19-.41.12-.76-.29-.61-.49-.66-.53-1.34-2.46-.52-3.13l-1.15-.51c.5-3.64,1.2-4.81,1.33-9.1.24-3.34,2.08-7.81,3.03-9.66,1.08-2.13,2.63-2,4.13-2.9.63-.38,2.49-.89,2.76-1.08.62-.44.61-1.65.6-1.64-.04.2-1.06-2.21-.56-2.2.03-.36-.05-1.18.41-1.55.34-1.03.02-1.72.95-2.91,2-1.63,5.74-.48,6.64,1.75.07.98-.19,1.24-.55,2.11-.17.72.58,1.58-.19,1.83-.22.41-.24,2.1-.92,2.2.3-.07,1.22,1.17,1.12,1.24,0,0,.64.34,1.33,1.1,1.17,1.64,1.27,2.47,1.48,3.34.57,2.33,1.23,6.13,1.31,7.6.01.81.27,2.82.28,3.77.16,1.79.44,4.4.56,5.51-.1.21-.43.36-.43.36,0,0,.1.31.23,1.52.15,1.72-2.29,2.49-3.05,1.07-.24-.38.2-.82.54-1.01.27-.15.11-.86.22-1.31,0,0-.25,0-.36-.02-.06-1.11-.35-3.05-.72-4.26-.52-1.72-1.38-6-1.67-7.81.11,3.51-.05,8.7-.57,12.14l-1.73.15-.59,1.89Z"/>
</svg>