<svg width="617" height="81" viewBox="0 0 617 81" fill="none" xmlns="http://www.w3.org/2000/svg">
<path d="M13.416 72.24C12.856 72.24 12.32 72.128 11.808 71.904C11.296 71.68 10.792 71.32 10.296 70.824C9.816 70.312 9.312 69.624 8.784 68.76L6.384 64.752H5.424V72H2.28V59.28C2.28 58.56 2.176 57.984 1.968 57.552C1.776 57.104 1.32 56.88 0.6 56.88H0.36V56.16H6.984C7.416 56.16 7.912 56.192 8.472 56.256C9.048 56.304 9.624 56.416 10.2 56.592C10.776 56.752 11.312 56.992 11.808 57.312C12.304 57.632 12.704 58.056 13.008 58.584C13.312 59.096 13.464 59.736 13.464 60.504C13.464 61.352 13.272 62.048 12.888 62.592C12.52 63.12 12.04 63.536 11.448 63.84C10.856 64.144 10.232 64.384 9.576 64.56L12.096 68.76C12.704 69.784 13.264 70.464 13.776 70.8C14.288 71.136 14.72 71.336 15.072 71.4V72C14.944 72.064 14.712 72.12 14.376 72.168C14.056 72.216 13.736 72.24 13.416 72.24ZM5.424 63.792H6.864C7.248 63.792 7.632 63.736 8.016 63.624C8.4 63.512 8.744 63.328 9.048 63.072C9.368 62.816 9.624 62.472 9.816 62.04C10.008 61.608 10.104 61.08 10.104 60.456C10.104 59.832 10.008 59.312 9.816 58.896C9.64 58.464 9.392 58.12 9.072 57.864C8.768 57.592 8.424 57.4 8.04 57.288C7.672 57.176 7.296 57.12 6.912 57.12C6.784 57.12 6.592 57.128 6.336 57.144C6.096 57.16 5.792 57.208 5.424 57.288V63.792ZM16.6851 72V63.84C16.6851 63.12 16.5811 62.544 16.3731 62.112C16.1811 61.664 15.7251 61.44 15.0051 61.44H14.7651V60.72H17.6451C18.2051 60.72 18.6371 60.816 18.9411 61.008C19.2611 61.2 19.4851 61.52 19.6131 61.968C19.7411 62.416 19.8051 63.04 19.8051 63.84V72H16.6851ZM18.2451 59.424C17.6371 59.424 17.1811 59.24 16.8771 58.872C16.5891 58.504 16.4451 58.08 16.4451 57.6C16.4451 57.184 16.5731 56.856 16.8291 56.616C17.0851 56.376 17.3971 56.256 17.7651 56.256C18.3731 56.256 18.8211 56.44 19.1091 56.808C19.4131 57.176 19.5651 57.6 19.5651 58.08C19.5651 58.496 19.4371 58.824 19.1811 59.064C18.9251 59.304 18.6131 59.424 18.2451 59.424ZM26.6835 72.24C25.6915 72.24 24.8755 72.152 24.2355 71.976C23.6115 71.8 23.1395 71.56 22.8195 71.256C22.5315 70.984 22.3635 70.592 22.3155 70.08C22.2675 69.568 22.2435 69.008 22.2435 68.4H23.0835C23.2115 69.168 23.5235 69.824 24.0195 70.368C24.5155 70.896 25.2435 71.16 26.2035 71.16C27.0995 71.16 27.7235 71.008 28.0755 70.704C28.4275 70.384 28.6035 69.992 28.6035 69.528C28.6035 69.064 28.3955 68.696 27.9795 68.424C27.5635 68.136 27.0515 67.856 26.4435 67.584L25.1955 67.056C24.2355 66.64 23.4835 66.168 22.9395 65.64C22.3955 65.112 22.1235 64.456 22.1235 63.672C22.1235 62.632 22.5555 61.84 23.4195 61.296C24.2835 60.752 25.3715 60.48 26.6835 60.48C27.6755 60.48 28.4835 60.568 29.1075 60.744C29.7475 60.92 30.2275 61.16 30.5475 61.464C30.8355 61.736 31.0035 62.128 31.0515 62.64C31.0995 63.152 31.1235 63.712 31.1235 64.32H30.2835C30.1555 63.552 29.8435 62.904 29.3475 62.376C28.8515 61.832 28.1235 61.56 27.1635 61.56C26.4435 61.56 25.9235 61.72 25.6035 62.04C25.2835 62.344 25.1235 62.728 25.1235 63.192C25.1235 63.624 25.2755 63.976 25.5795 64.248C25.8835 64.504 26.2995 64.744 26.8275 64.968L28.2675 65.568C29.3715 66.032 30.2035 66.52 30.7635 67.032C31.3235 67.528 31.6035 68.2 31.6035 69.048C31.6035 70.088 31.1395 70.88 30.2115 71.424C29.2835 71.968 28.1075 72.24 26.6835 72.24ZM42.8541 72.24C42.1821 72.24 41.5501 72.104 40.9581 71.832C40.3661 71.544 39.8061 71.04 39.2781 70.32L36.9741 67.296V72H33.8541V59.28C33.8541 58.56 33.7501 57.984 33.5421 57.552C33.3501 57.104 32.8941 56.88 32.1741 56.88H31.9341V56.16H34.8141C35.3741 56.16 35.8061 56.256 36.1101 56.448C36.4301 56.64 36.6541 56.96 36.7821 57.408C36.9101 57.856 36.9741 58.48 36.9741 59.28V66.12L39.8781 62.568C40.3741 61.976 40.8621 61.52 41.3421 61.2C41.8221 60.88 42.4861 60.72 43.3341 60.72H43.8141V61.344C43.3341 61.344 42.9021 61.44 42.5181 61.632C42.1341 61.824 41.7661 62.128 41.4141 62.544L39.0861 65.376L42.2781 69.6C42.6941 70.16 43.0861 70.584 43.4541 70.872C43.8221 71.16 44.1741 71.344 44.5101 71.424V72C44.3821 72.064 44.1501 72.12 43.8141 72.168C43.4781 72.216 43.1581 72.24 42.8541 72.24ZM50.0273 72.24C49.0353 72.24 48.2193 72.152 47.5793 71.976C46.9553 71.8 46.4833 71.56 46.1633 71.256C45.8753 70.984 45.7073 70.592 45.6593 70.08C45.6113 69.568 45.5873 69.008 45.5873 68.4H46.4273C46.5553 69.168 46.8673 69.824 47.3633 70.368C47.8593 70.896 48.5873 71.16 49.5473 71.16C50.4433 71.16 51.0673 71.008 51.4193 70.704C51.7713 70.384 51.9473 69.992 51.9473 69.528C51.9473 69.064 51.7393 68.696 51.3233 68.424C50.9073 68.136 50.3953 67.856 49.7873 67.584L48.5393 67.056C47.5793 66.64 46.8273 66.168 46.2833 65.64C45.7393 65.112 45.4673 64.456 45.4673 63.672C45.4673 62.632 45.8993 61.84 46.7633 61.296C47.6273 60.752 48.7153 60.48 50.0273 60.48C51.0193 60.48 51.8273 60.568 52.4513 60.744C53.0913 60.92 53.5713 61.16 53.8913 61.464C54.1793 61.736 54.3473 62.128 54.3953 62.64C54.4433 63.152 54.4673 63.712 54.4673 64.32H53.6273C53.4993 63.552 53.1873 62.904 52.6913 62.376C52.1953 61.832 51.4673 61.56 50.5073 61.56C49.7873 61.56 49.2673 61.72 48.9473 62.04C48.6273 62.344 48.4673 62.728 48.4673 63.192C48.4673 63.624 48.6193 63.976 48.9233 64.248C49.2273 64.504 49.6433 64.744 50.1713 64.968L51.6113 65.568C52.7153 66.032 53.5473 66.52 54.1073 67.032C54.6673 67.528 54.9473 68.2 54.9473 69.048C54.9473 70.088 54.4833 70.88 53.5553 71.424C52.6273 71.968 51.4513 72.24 50.0273 72.24ZM68.3818 72.24C67.1978 72.24 66.1738 71.984 65.3098 71.472C64.4458 70.944 63.7818 70.232 63.3178 69.336C62.8538 68.44 62.6218 67.448 62.6218 66.36C62.6218 65.256 62.8538 64.264 63.3178 63.384C63.7818 62.488 64.4458 61.784 65.3098 61.272C66.1738 60.744 67.1978 60.48 68.3818 60.48C69.5818 60.48 70.6058 60.744 71.4538 61.272C72.3178 61.784 72.9818 62.488 73.4458 63.384C73.9098 64.264 74.1418 65.256 74.1418 66.36C74.1418 67.448 73.9098 68.44 73.4458 69.336C72.9818 70.232 72.3178 70.944 71.4538 71.472C70.6058 71.984 69.5818 72.24 68.3818 72.24ZM68.3818 71.16C68.9418 71.16 69.4058 70.952 69.7738 70.536C70.1578 70.12 70.4378 69.552 70.6138 68.832C70.8058 68.096 70.9018 67.272 70.9018 66.36C70.9018 65.432 70.8058 64.608 70.6138 63.888C70.4378 63.168 70.1578 62.6 69.7738 62.184C69.4058 61.768 68.9418 61.56 68.3818 61.56C67.8218 61.56 67.3498 61.768 66.9658 62.184C66.5978 62.6 66.3178 63.168 66.1258 63.888C65.9498 64.608 65.8618 65.432 65.8618 66.36C65.8618 67.272 65.9498 68.096 66.1258 68.832C66.3178 69.552 66.5978 70.12 66.9658 70.536C67.3498 70.952 67.8218 71.16 68.3818 71.16ZM76.728 72V61.8H75.288V60.72H76.728V60.072C76.728 59.16 76.896 58.4 77.232 57.792C77.584 57.168 78.104 56.704 78.792 56.4C79.496 56.08 80.368 55.92 81.408 55.92C81.824 55.92 82.24 55.96 82.656 56.04C83.072 56.104 83.384 56.2 83.592 56.328C83.8 56.44 83.976 56.584 84.12 56.76C84.28 56.936 84.416 57.136 84.528 57.36L83.568 58.2C83.328 57.832 83.032 57.544 82.68 57.336C82.328 57.112 81.944 57 81.528 57C80.984 57 80.568 57.224 80.28 57.672C79.992 58.104 79.848 58.904 79.848 60.072V60.72H82.968V61.8H79.848V72H76.728ZM95.8511 72.216L90.6671 58.968C90.2991 58.056 89.9311 57.424 89.5631 57.072C89.1951 56.72 88.7711 56.512 88.2911 56.448V55.968C88.3551 55.968 88.5151 55.96 88.7711 55.944C89.0111 55.928 89.1871 55.92 89.2991 55.92C89.8591 55.92 90.4351 55.984 91.0271 56.112C91.6191 56.224 92.1791 56.496 92.7071 56.928C93.2351 57.36 93.6831 58.04 94.0511 58.968L97.2911 67.248L99.4511 61.104L98.6111 58.968C98.2431 58.056 97.8431 57.424 97.4111 57.072C96.9951 56.72 96.5471 56.512 96.0671 56.448V55.968C96.1311 55.968 96.2751 55.96 96.4991 55.944C96.7231 55.928 96.8911 55.92 97.0031 55.92C97.5631 55.92 98.1391 55.984 98.7311 56.112C99.3231 56.24 99.8831 56.52 100.411 56.952C100.939 57.368 101.387 58.04 101.755 58.968L105.187 67.704L109.291 56.16H110.443L104.755 72.216H103.795L100.099 62.808L96.8111 72.216H95.8511ZM115.838 72.24C114.718 72.24 113.742 71.984 112.91 71.472C112.078 70.96 111.438 70.264 110.99 69.384C110.542 68.488 110.318 67.48 110.318 66.36C110.318 65.08 110.55 64.008 111.014 63.144C111.478 62.264 112.11 61.6 112.91 61.152C113.71 60.704 114.606 60.48 115.598 60.48C116.59 60.48 117.486 60.68 118.286 61.08C119.086 61.48 119.718 62.04 120.182 62.76C120.646 63.48 120.878 64.32 120.878 65.28L120.782 66.792H113.558C113.558 68.376 113.798 69.504 114.278 70.176C114.774 70.832 115.414 71.16 116.198 71.16C117.03 71.16 117.702 70.968 118.214 70.584C118.742 70.2 119.214 69.728 119.63 69.168L120.374 69.72C120.15 70.072 119.846 70.448 119.462 70.848C119.094 71.232 118.614 71.56 118.022 71.832C117.446 72.104 116.718 72.24 115.838 72.24ZM113.558 65.712H117.638C117.638 64.128 117.446 63.04 117.062 62.448C116.694 61.856 116.206 61.56 115.598 61.56C115.246 61.56 114.91 61.688 114.59 61.944C114.286 62.2 114.038 62.632 113.846 63.24C113.654 63.832 113.558 64.656 113.558 65.712ZM127.137 72.24C126.145 72.24 125.329 72.152 124.689 71.976C124.065 71.8 123.593 71.56 123.273 71.256C122.985 70.984 122.817 70.592 122.769 70.08C122.721 69.568 122.697 69.008 122.697 68.4H123.537C123.665 69.168 123.977 69.824 124.473 70.368C124.969 70.896 125.697 71.16 126.657 71.16C127.553 71.16 128.177 71.008 128.529 70.704C128.881 70.384 129.057 69.992 129.057 69.528C129.057 69.064 128.849 68.696 128.433 68.424C128.017 68.136 127.505 67.856 126.897 67.584L125.649 67.056C124.689 66.64 123.937 66.168 123.393 65.64C122.849 65.112 122.577 64.456 122.577 63.672C122.577 62.632 123.009 61.84 123.873 61.296C124.737 60.752 125.825 60.48 127.137 60.48C128.129 60.48 128.937 60.568 129.561 60.744C130.201 60.92 130.681 61.16 131.001 61.464C131.289 61.736 131.457 62.128 131.505 62.64C131.553 63.152 131.577 63.712 131.577 64.32H130.737C130.609 63.552 130.297 62.904 129.801 62.376C129.305 61.832 128.577 61.56 127.617 61.56C126.897 61.56 126.377 61.72 126.057 62.04C125.737 62.344 125.577 62.728 125.577 63.192C125.577 63.624 125.729 63.976 126.033 64.248C126.337 64.504 126.753 64.744 127.281 64.968L128.721 65.568C129.825 66.032 130.657 66.52 131.217 67.032C131.777 67.528 132.057 68.2 132.057 69.048C132.057 70.088 131.593 70.88 130.665 71.424C129.737 71.968 128.561 72.24 127.137 72.24ZM138.291 72.24C137.203 72.24 136.347 71.944 135.723 71.352C135.115 70.76 134.811 69.888 134.811 68.736V61.8H133.371V60.72H134.811V58.56L136.011 57.12H137.931V60.72H140.571V61.8H137.931V68.88C137.931 69.776 138.035 70.384 138.243 70.704C138.467 71.008 138.779 71.16 139.179 71.16C139.595 71.16 139.963 71.088 140.283 70.944C140.603 70.8 140.867 70.656 141.075 70.512L141.411 71.184C141.091 71.472 140.675 71.72 140.163 71.928C139.651 72.136 139.027 72.24 138.291 72.24ZM162.424 72.096C161.896 72.096 161.336 72.032 160.744 71.904C160.168 71.76 159.608 71.464 159.064 71.016C158.536 70.568 158.08 69.888 157.696 68.976L157.144 67.632H150.76L148.792 72H147.544L154.624 56.16H155.704L161.08 68.976C161.368 69.68 161.72 70.24 162.136 70.656C162.552 71.072 163.032 71.312 163.576 71.376V71.976C163.448 72.008 163.264 72.032 163.024 72.048C162.8 72.08 162.6 72.096 162.424 72.096ZM151.264 66.552H156.688L154.048 60.288L151.264 66.552ZM164.619 72V61.8H163.179V60.72H164.619V60.072C164.619 59.16 164.787 58.4 165.123 57.792C165.475 57.168 165.995 56.704 166.683 56.4C167.387 56.08 168.259 55.92 169.299 55.92C169.715 55.92 170.131 55.96 170.547 56.04C170.963 56.104 171.275 56.2 171.483 56.328C171.691 56.44 171.867 56.584 172.011 56.76C172.171 56.936 172.307 57.136 172.419 57.36L171.459 58.2C171.219 57.832 170.923 57.544 170.571 57.336C170.219 57.112 169.835 57 169.419 57C168.875 57 168.459 57.224 168.171 57.672C167.883 58.104 167.739 58.904 167.739 60.072V60.72H170.859V61.8H167.739V72H164.619ZM173.014 72V63.84C173.014 63.12 172.918 62.544 172.726 62.112C172.534 61.664 172.078 61.44 171.358 61.44H171.118V60.72H173.494C174.038 60.72 174.462 60.792 174.766 60.936C175.086 61.064 175.334 61.288 175.51 61.608C175.798 61.352 176.19 61.104 176.686 60.864C177.198 60.608 177.814 60.48 178.534 60.48C178.886 60.48 179.206 60.52 179.494 60.6C179.782 60.68 180.03 60.8 180.238 60.96C180.51 61.152 180.71 61.384 180.838 61.656C180.982 61.928 181.054 62.056 181.054 62.04L179.83 62.976C179.686 62.768 179.47 62.56 179.182 62.352C178.91 62.144 178.574 62.04 178.174 62.04C177.662 62.04 177.23 62.112 176.878 62.256C176.526 62.4 176.246 62.576 176.038 62.784C176.07 63.072 176.094 63.304 176.11 63.48C176.126 63.656 176.134 63.808 176.134 63.936V72H173.014ZM183.021 72V63.84C183.021 63.12 182.917 62.544 182.709 62.112C182.517 61.664 182.061 61.44 181.341 61.44H181.101V60.72H183.981C184.541 60.72 184.973 60.816 185.277 61.008C185.597 61.2 185.821 61.52 185.949 61.968C186.077 62.416 186.141 63.04 186.141 63.84V72H183.021ZM184.581 59.424C183.973 59.424 183.517 59.24 183.213 58.872C182.925 58.504 182.781 58.08 182.781 57.6C182.781 57.184 182.909 56.856 183.165 56.616C183.421 56.376 183.733 56.256 184.101 56.256C184.709 56.256 185.157 56.44 185.445 56.808C185.749 57.176 185.901 57.6 185.901 58.08C185.901 58.496 185.773 58.824 185.517 59.064C185.261 59.304 184.949 59.424 184.581 59.424ZM194.147 72.24C192.867 72.24 191.795 71.976 190.931 71.448C190.083 70.904 189.443 70.184 189.011 69.288C188.595 68.392 188.387 67.416 188.387 66.36C188.387 65.288 188.595 64.312 189.011 63.432C189.443 62.536 190.083 61.824 190.931 61.296C191.795 60.752 192.867 60.48 194.147 60.48C195.059 60.48 195.827 60.544 196.451 60.672C197.091 60.8 197.563 61.016 197.867 61.32C198.171 61.624 198.347 62.032 198.395 62.544C198.443 63.056 198.467 63.768 198.467 64.68H197.747C197.683 63.656 197.363 62.88 196.787 62.352C196.227 61.824 195.467 61.56 194.507 61.56C193.931 61.56 193.427 61.736 192.995 62.088C192.563 62.424 192.227 62.952 191.987 63.672C191.747 64.376 191.627 65.272 191.627 66.36C191.627 67.416 191.739 68.304 191.963 69.024C192.187 69.728 192.515 70.264 192.947 70.632C193.395 70.984 193.955 71.16 194.627 71.16C195.459 71.16 196.131 70.968 196.643 70.584C197.171 70.2 197.643 69.728 198.059 69.168L198.803 69.72C198.579 70.072 198.275 70.448 197.891 70.848C197.523 71.232 197.035 71.56 196.427 71.832C195.835 72.104 195.075 72.24 194.147 72.24ZM204.206 72.24C203.534 72.24 202.942 72.16 202.43 72C201.934 71.84 201.51 71.624 201.158 71.352C200.822 71.064 200.566 70.72 200.39 70.32C200.214 69.92 200.126 69.48 200.126 69C200.126 68.232 200.302 67.584 200.654 67.056C201.022 66.512 201.678 66.104 202.622 65.832C203.566 65.544 204.894 65.4 206.606 65.4H206.966C206.966 64.44 206.878 63.68 206.702 63.12C206.526 62.56 206.262 62.16 205.91 61.92C205.574 61.68 205.166 61.56 204.686 61.56C204.142 61.56 203.654 61.696 203.222 61.968C202.79 62.24 202.478 62.824 202.286 63.72H200.966C200.966 63.304 200.99 62.88 201.038 62.448C201.102 62.016 201.278 61.64 201.566 61.32C201.854 61 202.326 60.784 202.982 60.672C203.654 60.544 204.382 60.48 205.166 60.48C205.95 60.48 206.646 60.584 207.254 60.792C207.862 61 208.374 61.312 208.79 61.728C209.222 62.144 209.542 62.672 209.75 63.312C209.974 63.936 210.086 64.672 210.086 65.52V72H208.046L207.206 70.92H207.086C206.878 71.256 206.526 71.56 206.03 71.832C205.534 72.104 204.926 72.24 204.206 72.24ZM204.926 71.04C205.454 71.04 205.894 70.864 206.246 70.512C206.598 70.16 206.838 69.816 206.966 69.48V66.48H206.606C205.454 66.48 204.622 66.688 204.11 67.104C203.614 67.52 203.366 68.152 203.366 69C203.366 69.672 203.502 70.184 203.774 70.536C204.062 70.872 204.446 71.04 204.926 71.04ZM213.256 72V63.84C213.256 63.12 213.16 62.544 212.968 62.112C212.776 61.664 212.32 61.44 211.6 61.44H211.36V60.72H213.736C214.28 60.72 214.704 60.792 215.008 60.936C215.328 61.064 215.576 61.288 215.752 61.608C216.04 61.336 216.448 61.08 216.976 60.84C217.52 60.6 218.28 60.48 219.256 60.48C220.264 60.48 221.104 60.632 221.776 60.936C222.448 61.24 222.952 61.72 223.288 62.376C223.64 63.016 223.816 63.856 223.816 64.896V72H220.696V64.872C220.696 64.088 220.592 63.464 220.384 63C220.192 62.536 219.928 62.2 219.592 61.992C219.256 61.784 218.864 61.68 218.416 61.68C217.968 61.68 217.568 61.736 217.216 61.848C216.88 61.96 216.6 62.104 216.376 62.28V72H213.256ZM251.469 73.08C250.317 73.08 249.381 72.896 248.661 72.528C247.941 72.176 247.413 71.624 247.077 70.872C246.757 70.104 246.597 69.12 246.597 67.92V59.424L241.341 72H240.549L234.117 58.944V72H232.917V56.16H235.845L241.653 67.944L246.573 56.16H249.717V67.92C249.717 69.376 249.837 70.472 250.077 71.208C250.333 71.928 250.797 72.352 251.469 72.48V73.08ZM253.849 72V63.84C253.849 63.12 253.745 62.544 253.537 62.112C253.345 61.664 252.889 61.44 252.169 61.44H251.929V60.72H254.809C255.369 60.72 255.801 60.816 256.105 61.008C256.425 61.2 256.649 61.52 256.777 61.968C256.905 62.416 256.969 63.04 256.969 63.84V72H253.849ZM255.409 59.424C254.801 59.424 254.345 59.24 254.041 58.872C253.753 58.504 253.609 58.08 253.609 57.6C253.609 57.184 253.737 56.856 253.993 56.616C254.249 56.376 254.561 56.256 254.929 56.256C255.537 56.256 255.985 56.44 256.273 56.808C256.577 57.176 256.729 57.6 256.729 58.08C256.729 58.496 256.601 58.824 256.345 59.064C256.089 59.304 255.777 59.424 255.409 59.424ZM264.568 76.8C263.448 76.8 262.44 76.68 261.544 76.44C260.664 76.216 259.968 75.832 259.456 75.288C258.944 74.744 258.688 74.008 258.688 73.08C258.688 72.504 258.848 72.008 259.168 71.592C259.504 71.176 259.92 70.832 260.416 70.56C260.912 70.288 261.416 70.088 261.928 69.96C261.624 69.864 261.368 69.712 261.16 69.504C260.952 69.296 260.848 69.008 260.848 68.64C260.848 68.368 260.928 68.136 261.088 67.944C261.248 67.736 261.488 67.568 261.808 67.44C261.136 67.2 260.568 66.792 260.104 66.216C259.64 65.624 259.408 64.96 259.408 64.224C259.408 63.296 259.64 62.56 260.104 62.016C260.568 61.472 261.184 61.08 261.952 60.84C262.736 60.6 263.608 60.48 264.568 60.48H269.608V61.128L267.448 61.416C268.12 61.672 268.664 62.064 269.08 62.592C269.512 63.12 269.728 63.664 269.728 64.224C269.728 65.136 269.512 65.864 269.08 66.408C268.664 66.952 268.064 67.344 267.28 67.584C266.512 67.808 265.608 67.92 264.568 67.92C263.848 67.92 263.264 67.96 262.816 68.04C262.384 68.12 262.168 68.32 262.168 68.64C262.168 68.912 262.384 69.088 262.816 69.168C263.264 69.232 263.848 69.272 264.568 69.288C265.656 69.304 266.64 69.456 267.52 69.744C268.416 70.016 269.128 70.432 269.656 70.992C270.184 71.536 270.448 72.232 270.448 73.08C270.448 74.008 270.192 74.744 269.68 75.288C269.168 75.832 268.464 76.216 267.568 76.44C266.688 76.68 265.688 76.8 264.568 76.8ZM264.568 75.72C265.368 75.72 266.008 75.504 266.488 75.072C266.968 74.656 267.208 73.992 267.208 73.08C267.208 72.36 266.984 71.768 266.536 71.304C266.088 70.84 265.496 70.536 264.76 70.392L263.632 70.272C263.104 70.496 262.688 70.832 262.384 71.28C262.08 71.712 261.928 72.312 261.928 73.08C261.928 73.992 262.168 74.656 262.648 75.072C263.128 75.504 263.768 75.72 264.568 75.72ZM264.568 66.96C265.128 66.96 265.584 66.752 265.936 66.336C266.304 65.92 266.488 65.216 266.488 64.224C266.488 63.312 266.304 62.624 265.936 62.16C265.584 61.68 265.128 61.44 264.568 61.44C264.008 61.44 263.544 61.664 263.176 62.112C262.824 62.544 262.648 63.248 262.648 64.224C262.648 65.216 262.824 65.92 263.176 66.336C263.544 66.752 264.008 66.96 264.568 66.96ZM272.834 72V63.84C272.834 63.12 272.738 62.544 272.546 62.112C272.354 61.664 271.898 61.44 271.178 61.44H270.938V60.72H273.314C273.858 60.72 274.282 60.792 274.586 60.936C274.906 61.064 275.154 61.288 275.33 61.608C275.618 61.352 276.01 61.104 276.506 60.864C277.018 60.608 277.634 60.48 278.354 60.48C278.706 60.48 279.026 60.52 279.314 60.6C279.602 60.68 279.85 60.8 280.058 60.96C280.33 61.152 280.53 61.384 280.658 61.656C280.802 61.928 280.874 62.056 280.874 62.04L279.65 62.976C279.506 62.768 279.29 62.56 279.002 62.352C278.73 62.144 278.394 62.04 277.994 62.04C277.482 62.04 277.05 62.112 276.698 62.256C276.346 62.4 276.066 62.576 275.858 62.784C275.89 63.072 275.914 63.304 275.93 63.48C275.946 63.656 275.954 63.808 275.954 63.936V72H272.834ZM285.721 72.24C285.049 72.24 284.457 72.16 283.945 72C283.449 71.84 283.025 71.624 282.673 71.352C282.337 71.064 282.081 70.72 281.905 70.32C281.729 69.92 281.641 69.48 281.641 69C281.641 68.232 281.817 67.584 282.169 67.056C282.537 66.512 283.193 66.104 284.137 65.832C285.081 65.544 286.409 65.4 288.121 65.4H288.481C288.481 64.44 288.393 63.68 288.217 63.12C288.041 62.56 287.777 62.16 287.425 61.92C287.089 61.68 286.681 61.56 286.201 61.56C285.657 61.56 285.169 61.696 284.737 61.968C284.305 62.24 283.993 62.824 283.801 63.72H282.481C282.481 63.304 282.505 62.88 282.553 62.448C282.617 62.016 282.793 61.64 283.081 61.32C283.369 61 283.841 60.784 284.497 60.672C285.169 60.544 285.897 60.48 286.681 60.48C287.465 60.48 288.161 60.584 288.769 60.792C289.377 61 289.889 61.312 290.305 61.728C290.737 62.144 291.057 62.672 291.265 63.312C291.489 63.936 291.601 64.672 291.601 65.52V72H289.561L288.721 70.92H288.601C288.393 71.256 288.041 71.56 287.545 71.832C287.049 72.104 286.441 72.24 285.721 72.24ZM286.441 71.04C286.969 71.04 287.409 70.864 287.761 70.512C288.113 70.16 288.353 69.816 288.481 69.48V66.48H288.121C286.969 66.48 286.137 66.688 285.625 67.104C285.129 67.52 284.881 68.152 284.881 69C284.881 69.672 285.017 70.184 285.289 70.536C285.577 70.872 285.961 71.04 286.441 71.04ZM298.276 72.24C297.188 72.24 296.332 71.944 295.708 71.352C295.1 70.76 294.796 69.888 294.796 68.736V61.8H293.356V60.72H294.796V58.56L295.996 57.12H297.916V60.72H300.556V61.8H297.916V68.88C297.916 69.776 298.02 70.384 298.228 70.704C298.452 71.008 298.764 71.16 299.164 71.16C299.58 71.16 299.948 71.088 300.268 70.944C300.588 70.8 300.852 70.656 301.06 70.512L301.396 71.184C301.076 71.472 300.66 71.72 300.148 71.928C299.636 72.136 299.012 72.24 298.276 72.24ZM303.232 72V63.84C303.232 63.12 303.128 62.544 302.92 62.112C302.728 61.664 302.272 61.44 301.552 61.44H301.312V60.72H304.192C304.752 60.72 305.184 60.816 305.488 61.008C305.808 61.2 306.032 61.52 306.16 61.968C306.288 62.416 306.352 63.04 306.352 63.84V72H303.232ZM304.792 59.424C304.184 59.424 303.728 59.24 303.424 58.872C303.136 58.504 302.992 58.08 302.992 57.6C302.992 57.184 303.12 56.856 303.376 56.616C303.632 56.376 303.944 56.256 304.312 56.256C304.92 56.256 305.368 56.44 305.656 56.808C305.96 57.176 306.112 57.6 306.112 58.08C306.112 58.496 305.984 58.824 305.728 59.064C305.472 59.304 305.16 59.424 304.792 59.424ZM314.358 72.24C313.174 72.24 312.15 71.984 311.286 71.472C310.422 70.944 309.758 70.232 309.294 69.336C308.83 68.44 308.598 67.448 308.598 66.36C308.598 65.256 308.83 64.264 309.294 63.384C309.758 62.488 310.422 61.784 311.286 61.272C312.15 60.744 313.174 60.48 314.358 60.48C315.558 60.48 316.582 60.744 317.43 61.272C318.294 61.784 318.958 62.488 319.422 63.384C319.886 64.264 320.118 65.256 320.118 66.36C320.118 67.448 319.886 68.44 319.422 69.336C318.958 70.232 318.294 70.944 317.43 71.472C316.582 71.984 315.558 72.24 314.358 72.24ZM314.358 71.16C314.918 71.16 315.382 70.952 315.75 70.536C316.134 70.12 316.414 69.552 316.59 68.832C316.782 68.096 316.878 67.272 316.878 66.36C316.878 65.432 316.782 64.608 316.59 63.888C316.414 63.168 316.134 62.6 315.75 62.184C315.382 61.768 314.918 61.56 314.358 61.56C313.798 61.56 313.326 61.768 312.942 62.184C312.574 62.6 312.294 63.168 312.102 63.888C311.926 64.608 311.838 65.432 311.838 66.36C311.838 67.272 311.926 68.096 312.102 68.832C312.294 69.552 312.574 70.12 312.942 70.536C313.326 70.952 313.798 71.16 314.358 71.16ZM322.897 72V63.84C322.897 63.12 322.801 62.544 322.609 62.112C322.417 61.664 321.961 61.44 321.241 61.44H321.001V60.72H323.377C323.921 60.72 324.345 60.792 324.649 60.936C324.969 61.064 325.217 61.288 325.393 61.608C325.681 61.336 326.089 61.08 326.617 60.84C327.161 60.6 327.921 60.48 328.897 60.48C329.905 60.48 330.745 60.632 331.417 60.936C332.089 61.24 332.593 61.72 332.929 62.376C333.281 63.016 333.457 63.856 333.457 64.896V72H330.337V64.872C330.337 64.088 330.233 63.464 330.025 63C329.833 62.536 329.569 62.2 329.233 61.992C328.897 61.784 328.505 61.68 328.057 61.68C327.609 61.68 327.209 61.736 326.857 61.848C326.521 61.96 326.241 62.104 326.017 62.28V72H322.897Z" fill="#463C35"/>
<path d="M37.268 39.98C35.156 39.98 33.44 39.6427 32.12 38.968C30.8 38.3227 29.832 37.3107 29.216 35.932C28.6293 34.524 28.336 32.72 28.336 30.52V14.944L18.7 38H17.248L5.456 14.064V38H3.256V8.96H8.624L19.272 30.564L28.292 8.96H34.056V30.52C34.056 33.1893 34.276 35.1987 34.716 36.548C35.1853 37.868 36.036 38.6453 37.268 38.88V39.98ZM41.6323 38V23.04C41.6323 21.72 41.4416 20.664 41.0602 19.872C40.7083 19.0507 39.8723 18.64 38.5523 18.64H38.1122V17.32H43.3923C44.4189 17.32 45.2109 17.496 45.7683 17.848C46.3549 18.2 46.7656 18.7867 47.0003 19.608C47.2349 20.4293 47.3523 21.5733 47.3523 23.04V38H41.6323ZM44.4923 14.944C43.3776 14.944 42.5416 14.6067 41.9843 13.932C41.4563 13.2573 41.1923 12.48 41.1923 11.6C41.1923 10.8373 41.4269 10.236 41.8963 9.796C42.3656 9.356 42.9376 9.136 43.6123 9.136C44.7269 9.136 45.5483 9.47333 46.0763 10.148C46.6336 10.8227 46.9123 11.6 46.9123 12.48C46.9123 13.2427 46.6776 13.844 46.2083 14.284C45.7389 14.724 45.1669 14.944 44.4923 14.944ZM61.2827 46.8C59.2294 46.8 57.3814 46.58 55.7387 46.14C54.1254 45.7293 52.8494 45.0253 51.9107 44.028C50.9721 43.0307 50.5027 41.6813 50.5027 39.98C50.5027 38.924 50.7961 38.0147 51.3827 37.252C51.9987 36.4893 52.7614 35.8587 53.6707 35.36C54.5801 34.8613 55.5041 34.4947 56.4427 34.26C55.8854 34.084 55.4161 33.8053 55.0347 33.424C54.6534 33.0427 54.4627 32.5147 54.4627 31.84C54.4627 31.3413 54.6094 30.916 54.9027 30.564C55.1961 30.1827 55.6361 29.8747 56.2227 29.64C54.9907 29.2 53.9494 28.452 53.0987 27.396C52.2481 26.3107 51.8227 25.0933 51.8227 23.744C51.8227 22.0427 52.2481 20.6933 53.0987 19.696C53.9494 18.6987 55.0787 17.98 56.4867 17.54C57.9241 17.1 59.5227 16.88 61.2827 16.88H70.5227V18.068L66.5627 18.596C67.7947 19.0653 68.7921 19.784 69.5547 20.752C70.3467 21.72 70.7427 22.7173 70.7427 23.744C70.7427 25.416 70.3467 26.7507 69.5547 27.748C68.7921 28.7453 67.6921 29.464 66.2547 29.904C64.8467 30.3147 63.1894 30.52 61.2827 30.52C59.9627 30.52 58.8921 30.5933 58.0707 30.74C57.2787 30.8867 56.8827 31.2533 56.8827 31.84C56.8827 32.3387 57.2787 32.6613 58.0707 32.808C58.8921 32.9253 59.9627 32.9987 61.2827 33.028C63.2774 33.0573 65.0814 33.336 66.6947 33.864C68.3374 34.3627 69.6427 35.1253 70.6107 36.152C71.5787 37.1493 72.0627 38.4253 72.0627 39.98C72.0627 41.6813 71.5934 43.0307 70.6547 44.028C69.7161 45.0253 68.4254 45.7293 66.7827 46.14C65.1694 46.58 63.3361 46.8 61.2827 46.8ZM61.2827 44.82C62.7494 44.82 63.9227 44.424 64.8027 43.632C65.6827 42.8693 66.1227 41.652 66.1227 39.98C66.1227 38.66 65.7121 37.5747 64.8907 36.724C64.0694 35.8733 62.9841 35.316 61.6347 35.052L59.5667 34.832C58.5987 35.2427 57.8361 35.8587 57.2787 36.68C56.7214 37.472 56.4427 38.572 56.4427 39.98C56.4427 41.652 56.8827 42.8693 57.7627 43.632C58.6427 44.424 59.8161 44.82 61.2827 44.82ZM61.2827 28.76C62.3094 28.76 63.1454 28.3787 63.7907 27.616C64.4654 26.8533 64.8027 25.5627 64.8027 23.744C64.8027 22.072 64.4654 20.8107 63.7907 19.96C63.1454 19.08 62.3094 18.64 61.2827 18.64C60.2561 18.64 59.4054 19.0507 58.7307 19.872C58.0854 20.664 57.7627 21.9547 57.7627 23.744C57.7627 25.5627 58.0854 26.8533 58.7307 27.616C59.4054 28.3787 60.2561 28.76 61.2827 28.76ZM76.438 38V23.04C76.438 21.72 76.262 20.664 75.91 19.872C75.558 19.0507 74.722 18.64 73.402 18.64H72.962V17.32H77.318C78.3153 17.32 79.0926 17.452 79.65 17.716C80.2366 17.9507 80.6913 18.3613 81.014 18.948C81.542 18.4787 82.2606 18.024 83.17 17.584C84.1086 17.1147 85.238 16.88 86.558 16.88C87.2033 16.88 87.79 16.9533 88.318 17.1C88.846 17.2467 89.3006 17.4667 89.682 17.76C90.1806 18.112 90.5473 18.5373 90.782 19.036C91.046 19.5347 91.178 19.7693 91.178 19.74L88.934 21.456C88.67 21.0747 88.274 20.6933 87.746 20.312C87.2473 19.9307 86.6313 19.74 85.898 19.74C84.9593 19.74 84.1673 19.872 83.522 20.136C82.8766 20.4 82.3633 20.7227 81.982 21.104C82.0406 21.632 82.0846 22.0573 82.114 22.38C82.1433 22.7027 82.158 22.9813 82.158 23.216V38H76.438ZM100.065 38.44C98.8326 38.44 97.7473 38.2933 96.8086 38C95.8993 37.7067 95.1219 37.3107 94.4766 36.812C93.8606 36.284 93.3913 35.6533 93.0686 34.92C92.7459 34.1867 92.5846 33.38 92.5846 32.5C92.5846 31.092 92.9073 29.904 93.5526 28.936C94.2273 27.9387 95.4299 27.1907 97.1606 26.692C98.8913 26.164 101.326 25.9 104.465 25.9H105.125C105.125 24.14 104.963 22.7467 104.641 21.72C104.318 20.6933 103.834 19.96 103.189 19.52C102.573 19.08 101.825 18.86 100.945 18.86C99.9473 18.86 99.0526 19.1093 98.2606 19.608C97.4686 20.1067 96.8966 21.1773 96.5446 22.82H94.1246C94.1246 22.0573 94.1686 21.28 94.2566 20.488C94.3739 19.696 94.6966 19.0067 95.2246 18.42C95.7526 17.8333 96.6179 17.4373 97.8206 17.232C99.0526 16.9973 100.387 16.88 101.825 16.88C103.262 16.88 104.538 17.0707 105.653 17.452C106.767 17.8333 107.706 18.4053 108.469 19.168C109.261 19.9307 109.847 20.8987 110.229 22.072C110.639 23.216 110.845 24.5653 110.845 26.12V38H107.105L105.565 36.02H105.345C104.963 36.636 104.318 37.1933 103.409 37.692C102.499 38.1907 101.385 38.44 100.065 38.44ZM101.385 36.24C102.353 36.24 103.159 35.9173 103.805 35.272C104.45 34.6267 104.89 33.996 105.125 33.38V27.88H104.465C102.353 27.88 100.827 28.2613 99.8886 29.024C98.9793 29.7867 98.5246 30.9453 98.5246 32.5C98.5246 33.732 98.7739 34.6707 99.2726 35.316C99.8006 35.932 100.505 36.24 101.385 36.24ZM116.657 38V23.04C116.657 21.72 116.481 20.664 116.129 19.872C115.777 19.0507 114.941 18.64 113.621 18.64H113.181V17.32H117.537C118.534 17.32 119.311 17.452 119.869 17.716C120.455 17.9507 120.91 18.3613 121.233 18.948C121.761 18.4493 122.509 17.98 123.477 17.54C124.474 17.1 125.867 16.88 127.657 16.88C129.505 16.88 131.045 17.1587 132.277 17.716C133.509 18.2733 134.433 19.1533 135.049 20.356C135.694 21.5293 136.017 23.0693 136.017 24.976V38H130.297V24.932C130.297 23.4947 130.106 22.3507 129.725 21.5C129.373 20.6493 128.889 20.0333 128.273 19.652C127.657 19.2707 126.938 19.08 126.117 19.08C125.295 19.08 124.562 19.1827 123.917 19.388C123.301 19.5933 122.787 19.8573 122.377 20.18V38H116.657ZM148.389 38.44C146.395 38.44 144.825 37.8973 143.681 36.812C142.567 35.7267 142.009 34.128 142.009 32.016V19.3H139.369V17.32H142.009V13.36L144.209 10.72H147.729V17.32H152.569V19.3H147.729V32.28C147.729 33.9227 147.92 35.0373 148.301 35.624C148.712 36.1813 149.284 36.46 150.017 36.46C150.78 36.46 151.455 36.328 152.041 36.064C152.628 35.8 153.112 35.536 153.493 35.272L154.109 36.504C153.523 37.032 152.76 37.4867 151.821 37.868C150.883 38.2493 149.739 38.44 148.389 38.44ZM164.076 38.44C162.257 38.44 160.761 38.2787 159.588 37.956C158.444 37.6333 157.579 37.1933 156.992 36.636C156.464 36.1373 156.156 35.4187 156.068 34.48C155.98 33.5413 155.936 32.5147 155.936 31.4H157.476C157.711 32.808 158.283 34.0107 159.192 35.008C160.101 35.976 161.436 36.46 163.196 36.46C164.839 36.46 165.983 36.1813 166.628 35.624C167.273 35.0373 167.596 34.3187 167.596 33.468C167.596 32.6173 167.215 31.9427 166.452 31.444C165.689 30.916 164.751 30.4027 163.636 29.904L161.348 28.936C159.588 28.1733 158.209 27.308 157.212 26.34C156.215 25.372 155.716 24.1693 155.716 22.732C155.716 20.8253 156.508 19.3733 158.092 18.376C159.676 17.3787 161.671 16.88 164.076 16.88C165.895 16.88 167.376 17.0413 168.52 17.364C169.693 17.6867 170.573 18.1267 171.16 18.684C171.688 19.1827 171.996 19.9013 172.084 20.84C172.172 21.7787 172.216 22.8053 172.216 23.92H170.676C170.441 22.512 169.869 21.324 168.96 20.356C168.051 19.3587 166.716 18.86 164.956 18.86C163.636 18.86 162.683 19.1533 162.096 19.74C161.509 20.2973 161.216 21.0013 161.216 21.852C161.216 22.644 161.495 23.2893 162.052 23.788C162.609 24.2573 163.372 24.6973 164.34 25.108L166.98 26.208C169.004 27.0587 170.529 27.9533 171.556 28.892C172.583 29.8013 173.096 31.0333 173.096 32.588C173.096 34.4947 172.245 35.9467 170.544 36.944C168.843 37.9413 166.687 38.44 164.076 38.44ZM197.726 38.44C195.555 38.44 193.678 37.9707 192.094 37.032C190.51 36.064 189.293 34.7587 188.442 33.116C187.591 31.4733 187.166 29.6547 187.166 27.66C187.166 25.636 187.591 23.8173 188.442 22.204C189.293 20.5613 190.51 19.2707 192.094 18.332C193.678 17.364 195.555 16.88 197.726 16.88C199.926 16.88 201.803 17.364 203.358 18.332C204.942 19.2707 206.159 20.5613 207.01 22.204C207.861 23.8173 208.286 25.636 208.286 27.66C208.286 29.6547 207.861 31.4733 207.01 33.116C206.159 34.7587 204.942 36.064 203.358 37.032C201.803 37.9707 199.926 38.44 197.726 38.44ZM197.726 36.46C198.753 36.46 199.603 36.0787 200.278 35.316C200.982 34.5533 201.495 33.512 201.818 32.192C202.17 30.8427 202.346 29.332 202.346 27.66C202.346 25.9587 202.17 24.448 201.818 23.128C201.495 21.808 200.982 20.7667 200.278 20.004C199.603 19.2413 198.753 18.86 197.726 18.86C196.699 18.86 195.834 19.2413 195.13 20.004C194.455 20.7667 193.942 21.808 193.59 23.128C193.267 24.448 193.106 25.9587 193.106 27.66C193.106 29.332 193.267 30.8427 193.59 32.192C193.942 33.512 194.455 34.5533 195.13 35.316C195.834 36.0787 196.699 36.46 197.726 36.46ZM213.379 38V23.04C213.379 21.72 213.203 20.664 212.851 19.872C212.499 19.0507 211.663 18.64 210.343 18.64H209.903V17.32H214.259C215.257 17.32 216.034 17.452 216.591 17.716C217.178 17.9507 217.633 18.3613 217.955 18.948C218.483 18.4493 219.231 17.98 220.199 17.54C221.197 17.1 222.59 16.88 224.379 16.88C226.227 16.88 227.767 17.1587 228.999 17.716C230.231 18.2733 231.155 19.1533 231.771 20.356C232.417 21.5293 232.739 23.0693 232.739 24.976V38H227.019V24.932C227.019 23.4947 226.829 22.3507 226.447 21.5C226.095 20.6493 225.611 20.0333 224.995 19.652C224.379 19.2707 223.661 19.08 222.839 19.08C222.018 19.08 221.285 19.1827 220.639 19.388C220.023 19.5933 219.51 19.8573 219.099 20.18V38H213.379ZM256.112 38.44C254.117 38.44 252.548 37.8973 251.404 36.812C250.289 35.7267 249.732 34.128 249.732 32.016V19.3H247.092V17.32H249.732V13.36L251.932 10.72H255.452V17.32H260.292V19.3H255.452V32.28C255.452 33.9227 255.643 35.0373 256.024 35.624C256.435 36.1813 257.007 36.46 257.74 36.46C258.503 36.46 259.177 36.328 259.764 36.064C260.351 35.8 260.835 35.536 261.216 35.272L261.832 36.504C261.245 37.032 260.483 37.4867 259.544 37.868C258.605 38.2493 257.461 38.44 256.112 38.44ZM264.363 38V14.68C264.363 13.36 264.172 12.304 263.791 11.512C263.439 10.6907 262.603 10.28 261.283 10.28H260.843V8.96H266.123C267.149 8.96 267.941 9.136 268.499 9.488C269.085 9.84 269.496 10.4267 269.731 11.248C269.965 12.0693 270.083 13.2133 270.083 14.68V18.552C270.581 18.1707 271.256 17.804 272.107 17.452C272.987 17.0707 273.925 16.88 274.923 16.88C275.92 16.88 276.903 16.9973 277.871 17.232C278.868 17.4667 279.777 17.892 280.599 18.508C281.42 19.0947 282.065 19.916 282.535 20.972C283.033 21.9987 283.283 23.3187 283.283 24.932V38H277.563V25.152C277.563 23.6267 277.372 22.424 276.991 21.544C276.639 20.664 276.155 20.0333 275.539 19.652C274.952 19.2707 274.307 19.08 273.603 19.08C272.84 19.08 272.136 19.2707 271.491 19.652C270.875 20.0333 270.405 20.356 270.083 20.62V38H264.363ZM297.404 38.44C295.351 38.44 293.562 37.9707 292.036 37.032C290.511 36.0933 289.338 34.8173 288.516 33.204C287.695 31.5613 287.284 29.7133 287.284 27.66C287.284 25.3133 287.71 23.348 288.56 21.764C289.411 20.1507 290.57 18.9333 292.036 18.112C293.503 17.2907 295.146 16.88 296.964 16.88C298.783 16.88 300.426 17.2467 301.892 17.98C303.359 18.7133 304.518 19.74 305.368 21.06C306.219 22.38 306.644 23.92 306.644 25.68L306.468 28.452H293.224C293.224 31.356 293.664 33.424 294.544 34.656C295.454 35.8587 296.627 36.46 298.064 36.46C299.59 36.46 300.822 36.108 301.76 35.404C302.728 34.7 303.594 33.8347 304.356 32.808L305.72 33.82C305.31 34.4653 304.752 35.1547 304.048 35.888C303.374 36.592 302.494 37.1933 301.408 37.692C300.352 38.1907 299.018 38.44 297.404 38.44ZM293.224 26.472H300.704C300.704 23.568 300.352 21.5733 299.648 20.488C298.974 19.4027 298.079 18.86 296.964 18.86C296.319 18.86 295.703 19.0947 295.116 19.564C294.559 20.0333 294.104 20.8253 293.752 21.94C293.4 23.0253 293.224 24.536 293.224 26.472ZM356.311 39.98C354.199 39.98 352.483 39.6427 351.163 38.968C349.843 38.3227 348.875 37.3107 348.259 35.932C347.672 34.524 347.379 32.72 347.379 30.52V14.944L337.743 38H336.291L324.499 14.064V38H322.299V8.96H327.667L338.315 30.564L347.335 8.96H353.099V30.52C353.099 33.1893 353.319 35.1987 353.759 36.548C354.228 37.868 355.079 38.6453 356.311 38.88V39.98ZM368.742 38.44C366.571 38.44 364.694 37.9707 363.11 37.032C361.526 36.064 360.308 34.7587 359.458 33.116C358.607 31.4733 358.182 29.6547 358.182 27.66C358.182 25.636 358.607 23.8173 359.458 22.204C360.308 20.5613 361.526 19.2707 363.11 18.332C364.694 17.364 366.571 16.88 368.742 16.88C370.942 16.88 372.819 17.364 374.374 18.332C375.958 19.2707 377.175 20.5613 378.026 22.204C378.876 23.8173 379.302 25.636 379.302 27.66C379.302 29.6547 378.876 31.4733 378.026 33.116C377.175 34.7587 375.958 36.064 374.374 37.032C372.819 37.9707 370.942 38.44 368.742 38.44ZM368.742 36.46C369.768 36.46 370.619 36.0787 371.294 35.316C371.998 34.5533 372.511 33.512 372.834 32.192C373.186 30.8427 373.362 29.332 373.362 27.66C373.362 25.9587 373.186 24.448 372.834 23.128C372.511 21.808 371.998 20.7667 371.294 20.004C370.619 19.2413 369.768 18.86 368.742 18.86C367.715 18.86 366.85 19.2413 366.146 20.004C365.471 20.7667 364.958 21.808 364.606 23.128C364.283 24.448 364.122 25.9587 364.122 27.66C364.122 29.332 364.283 30.8427 364.606 32.192C364.958 33.512 365.471 34.5533 366.146 35.316C366.85 36.0787 367.715 36.46 368.742 36.46ZM391.183 38.44L383.747 22.38C382.985 20.7667 382.325 19.6227 381.767 18.948C381.21 18.2733 380.565 17.9067 379.831 17.848V16.968C379.949 16.968 380.198 16.9533 380.579 16.924C380.961 16.8947 381.254 16.88 381.459 16.88C382.633 16.88 383.718 17.0267 384.715 17.32C385.742 17.584 386.681 18.112 387.531 18.904C388.411 19.696 389.203 20.8547 389.907 22.38L393.779 30.828L399.763 17.32H402.139L392.767 38.44H391.183ZM413.807 38.44C411.753 38.44 409.964 37.9707 408.439 37.032C406.913 36.0933 405.74 34.8173 404.919 33.204C404.097 31.5613 403.687 29.7133 403.687 27.66C403.687 25.3133 404.112 23.348 404.963 21.764C405.813 20.1507 406.972 18.9333 408.439 18.112C409.905 17.2907 411.548 16.88 413.367 16.88C415.185 16.88 416.828 17.2467 418.295 17.98C419.761 18.7133 420.92 19.74 421.771 21.06C422.621 22.38 423.047 23.92 423.047 25.68L422.871 28.452H409.627C409.627 31.356 410.067 33.424 410.947 34.656C411.856 35.8587 413.029 36.46 414.467 36.46C415.992 36.46 417.224 36.108 418.163 35.404C419.131 34.7 419.996 33.8347 420.759 32.808L422.123 33.82C421.712 34.4653 421.155 35.1547 420.451 35.888C419.776 36.592 418.896 37.1933 417.811 37.692C416.755 38.1907 415.42 38.44 413.807 38.44ZM409.627 26.472H417.107C417.107 23.568 416.755 21.5733 416.051 20.488C415.376 19.4027 414.481 18.86 413.367 18.86C412.721 18.86 412.105 19.0947 411.519 19.564C410.961 20.0333 410.507 20.8253 410.155 21.94C409.803 23.0253 409.627 24.536 409.627 26.472Z" fill="#463C35"/>
</svg>
